<?xml version="1.0" standalone="no"?>
<!DOCTYPE svg PUBLIC "-//W3C//DTD SVG 20010904//EN"
 "http://www.w3.org/TR/2001/REC-SVG-20010904/DTD/svg10.dtd">
<svg version="1.0" xmlns="http://www.w3.org/2000/svg"
 width="660.000000pt" height="371.000000pt" viewBox="0 0 660.000000 371.000000"
 preserveAspectRatio="xMidYMid meet">

<g transform="translate(0.000000,371.000000) scale(0.100000,-0.100000)"
fill="#000000" stroke="none">
<path d="M67 3674 c-4 -4 -7 -756 -7 -1671 l0 -1663 40 0 40 0 -2 1668 -3
1667 -30 3 c-17 2 -34 0 -38 -4z"/>
<path d="M1230 3666 c0 -8 -6 -16 -12 -19 -9 -3 -6 -11 10 -24 12 -11 22 -28
22 -37 0 -9 7 -16 15 -16 8 0 15 4 15 9 0 5 -7 14 -15 21 -8 7 -15 16 -15 21
0 5 7 9 15 9 8 0 15 5 15 10 0 6 -7 10 -16 10 -10 0 -14 6 -10 15 3 9 0 15 -9
15 -8 0 -15 -6 -15 -14z"/>
<path d="M1631 3550 c34 -44 60 -81 58 -83 -99 -74 -126 -113 -71 -102 24 6
25 5 10 -8 -16 -13 -16 -14 2 -29 17 -15 20 -14 40 11 15 21 27 27 46 23 15
-3 32 2 44 13 11 10 20 14 20 8 0 -13 -37 -45 -77 -69 -39 -21 -43 -39 -9 -30
18 4 23 2 22 -12 0 -10 6 -17 17 -17 10 0 22 -6 26 -14 6 -8 16 -11 31 -6 19
6 21 4 16 -13 -8 -25 8 -37 26 -19 7 8 19 12 26 9 8 -2 12 7 12 27 0 17 5 31
10 31 6 0 10 24 8 60 -2 48 -7 65 -25 82 -13 12 -23 27 -23 35 0 7 -6 13 -14
13 -7 0 -30 12 -51 26 -26 17 -40 22 -45 14 -4 -7 -33 15 -75 59 -38 39 -72
71 -77 71 -5 0 19 -36 53 -80z m69 -120 c0 -5 -7 -10 -16 -10 -8 0 -12 5 -9
10 3 6 10 10 16 10 5 0 9 -4 9 -10z"/>
<path d="M740 3603 c0 -19 11 -43 21 -43 13 0 11 14 -6 36 -8 10 -15 14 -15 7z"/>
<path d="M830 3593 c17 -8 12 -46 -5 -39 -10 4 -15 -1 -15 -14 0 -11 -4 -20
-10 -20 -5 0 -10 5 -10 10 0 6 -7 10 -15 10 -8 0 -15 -4 -15 -10 0 -5 5 -10
12 -10 9 0 9 -3 0 -12 -9 -9 -15 -8 -27 8 -15 18 -16 18 -9 -6 7 -25 7 -25
-15 -6 -29 26 -37 15 -8 -12 l24 -22 57 26 c55 25 57 27 54 62 -2 19 -9 37
-16 38 -7 1 -8 0 -2 -3z"/>
<path d="M1216 3591 c-4 -7 -5 -15 -2 -18 9 -9 19 4 14 18 -4 11 -6 11 -12 0z"/>
<path d="M696 3554 c-9 -24 -2 -26 12 -4 7 11 8 20 3 20 -5 0 -12 -7 -15 -16z"/>
<path d="M1100 3544 c0 -8 5 -12 10 -9 6 4 8 11 5 16 -9 14 -15 11 -15 -7z"/>
<path d="M1366 3551 c-4 -5 -2 -12 3 -15 5 -4 12 -2 15 3 4 5 2 12 -3 15 -5 4
-12 2 -15 -3z"/>
<path d="M1070 3534 c0 -8 5 -12 10 -9 6 4 8 11 5 16 -9 14 -15 11 -15 -7z"/>
<path d="M1130 3540 c0 -5 5 -10 10 -10 6 0 10 5 10 10 0 6 -4 10 -10 10 -5 0
-10 -4 -10 -10z"/>
<path d="M1210 3540 c0 -6 -11 -8 -25 -4 -16 4 -25 2 -25 -6 0 -7 6 -10 14 -7
8 3 16 1 18 -5 3 -7 9 -8 18 -3 8 5 23 10 33 10 10 1 23 7 29 13 9 9 3 12 -25
12 -20 0 -37 -5 -37 -10z"/>
<path d="M1330 3540 c0 -5 5 -10 10 -10 6 0 10 5 10 10 0 6 -4 10 -10 10 -5 0
-10 -4 -10 -10z"/>
<path d="M1400 3534 c0 -8 5 -12 10 -9 6 3 10 10 10 16 0 5 -4 9 -10 9 -5 0
-10 -7 -10 -16z"/>
<path d="M1300 3530 c0 -5 5 -10 10 -10 6 0 10 5 10 10 0 6 -4 10 -10 10 -5 0
-10 -4 -10 -10z"/>
<path d="M1270 3520 c0 -5 5 -10 10 -10 6 0 10 5 10 10 0 6 -4 10 -10 10 -5 0
-10 -4 -10 -10z"/>
<path d="M850 3504 c-30 -8 -65 -21 -77 -29 -12 -8 -27 -15 -33 -15 -6 0 -18
-6 -26 -14 -7 -8 -19 -16 -26 -19 -10 -3 -9 -9 3 -23 11 -13 14 -25 9 -39 -20
-48 -4 -76 19 -32 8 16 10 16 5 2 -12 -34 -16 -105 -6 -105 5 0 14 19 20 43
10 41 11 41 5 -15 -4 -39 -2 -58 6 -58 6 0 11 5 11 12 0 6 3 8 6 5 17 -17 -44
-145 -130 -269 -28 -41 -63 -50 -86 -23 -20 24 -4 60 57 127 66 74 88 119 73
148 -17 32 -41 38 -92 23 -37 -11 -49 -20 -59 -46 -7 -18 -15 -36 -17 -40 -2
-5 6 -4 19 3 14 7 5 -6 -21 -30 -50 -46 -48 -46 31 -7 56 27 84 62 73 92 -9
22 33 20 44 -2 14 -26 1 -52 -57 -115 -56 -61 -85 -119 -76 -149 4 -11 2 -19
-5 -19 -6 0 -8 -4 -5 -10 3 -5 17 -10 31 -10 25 0 33 -15 12 -23 -7 -2 -10 -7
-7 -11 14 -15 59 15 89 59 34 50 51 55 27 8 -8 -15 -18 -44 -22 -63 -9 -47
-32 -80 -53 -80 -20 0 -42 -49 -42 -94 0 -21 4 -27 15 -23 11 5 13 0 8 -23 -5
-25 -2 -30 15 -30 14 0 19 -5 15 -18 -4 -15 2 -18 34 -17 21 0 44 4 51 8 6 5
17 5 23 2 6 -4 13 2 16 13 3 13 11 18 19 15 25 -10 15 17 -12 29 -20 9 -30 9
-46 -1 -18 -11 -23 -10 -39 6 -11 10 -20 36 -22 58 -2 37 0 40 53 70 66 37
100 83 100 136 0 45 12 50 28 14 16 -36 15 -49 -7 -69 -18 -17 -18 -18 1 -57
15 -32 22 -38 32 -29 11 8 15 5 20 -15 5 -20 11 -25 25 -20 11 3 22 1 26 -5 4
-6 17 -10 28 -8 12 1 28 -1 35 -5 7 -5 14 -2 18 7 3 9 12 16 20 16 18 0 18 14
-1 30 -9 7 -27 10 -43 7 -33 -7 -84 20 -102 54 -11 19 -8 25 19 51 41 38 39
59 -9 101 -22 19 -40 37 -40 40 0 4 15 7 33 7 18 0 38 5 45 12 9 9 12 8 12 -6
0 -9 5 -14 10 -11 5 3 10 1 10 -4 0 -6 7 -11 15 -11 16 0 20 -12 8 -24 -5 -4
-8 -19 -8 -32 -1 -19 3 -24 17 -21 9 3 19 0 22 -7 3 -7 8 -6 15 4 9 12 12 13
20 1 5 -8 11 -9 14 -3 9 13 -26 108 -49 135 -11 12 -28 33 -39 47 -19 23 -19
24 -1 10 14 -11 20 -12 23 -3 2 6 17 29 32 50 26 36 26 39 9 56 -10 9 -18 27
-18 39 0 12 -7 30 -17 40 -15 17 -15 18 0 18 21 0 22 14 2 30 -13 11 -13 15
-3 21 9 6 6 15 -15 37 -15 15 -24 32 -20 36 4 4 0 12 -10 17 -9 6 -17 21 -17
34 0 29 2 28 -70 9z m25 -55 c-8 -12 -35 -12 -35 0 0 11 22 20 33 14 4 -2 5
-9 2 -14z m-85 -28 c0 -14 -18 -23 -30 -16 -6 4 -8 11 -5 16 8 12 35 12 35 0z
m73 -18 c-7 -2 -13 -11 -13 -19 0 -16 -28 -18 -50 -4 -12 7 -10 11 10 19 14 5
34 10 45 10 11 -1 14 -3 8 -6z m11 -66 c8 -12 7 -20 -2 -29 -16 -16 -47 13
-38 37 7 19 25 16 40 -8z"/>
<path d="M1034 3503 c-13 -22 -10 -83 5 -92 19 -12 52 -101 46 -122 -4 -11 -1
-27 5 -35 10 -11 7 -18 -15 -36 -29 -22 -85 -104 -85 -122 0 -6 11 -12 24 -12
22 -2 23 0 13 17 -9 15 -8 22 5 35 14 14 20 15 32 4 20 -16 20 -37 2 -47 -8
-4 -14 -17 -13 -28 1 -11 -3 -19 -10 -17 -16 3 -16 -6 -2 -46 l11 -31 91 -3
92 -3 0 -105 c0 -58 4 -108 10 -112 17 -13 35 -9 35 7 0 8 -7 15 -15 15 -8 0
-15 7 -15 15 0 11 12 15 44 15 35 0 45 4 49 20 3 11 1 23 -4 26 -5 3 -9 0 -9
-5 0 -6 -7 -11 -16 -11 -9 0 -14 7 -12 18 2 13 13 17 41 16 39 0 44 5 26 23
-14 14 -1 36 17 29 18 -7 18 8 0 23 -8 7 -25 9 -40 5 -16 -4 -32 -1 -41 6 -11
9 -15 9 -15 1 0 -7 -4 -10 -9 -6 -6 3 -9 -4 -8 -15 1 -17 6 -19 40 -13 31 5
39 3 35 -8 -3 -8 -17 -14 -31 -14 -34 0 -58 -22 -38 -35 12 -7 12 -12 3 -23
-7 -7 -9 -17 -5 -20 3 -4 -1 -7 -11 -7 -15 0 -16 10 -14 78 l3 77 85 0 85 0
-3 -33 c-4 -49 -37 -107 -82 -143 -47 -38 -51 -56 -12 -64 15 -4 36 -8 46 -10
24 -5 84 55 110 109 20 43 38 143 30 169 -6 20 -50 41 -65 31 -5 -3 -9 -1 -9
5 0 5 8 14 17 20 15 8 15 13 5 36 -7 14 -17 23 -22 20 -6 -4 -7 -11 -4 -17 4
-6 1 -9 -6 -6 -26 8 -21 27 10 43 35 18 32 32 -19 82 -25 25 -28 35 -25 76 4
49 22 94 50 122 9 9 13 19 9 23 -4 4 -10 1 -12 -5 -3 -7 -11 -13 -19 -13 -8 0
-14 -7 -14 -16 0 -8 -4 -13 -9 -9 -5 3 -12 1 -16 -5 -3 -5 -1 -10 4 -10 6 0
11 -5 11 -11 0 -14 -52 -7 -58 9 -2 6 3 12 12 12 9 0 16 5 16 11 0 6 -9 9 -20
6 -11 -3 -23 -1 -26 4 -8 14 -24 10 -24 -6 0 -8 5 -15 10 -15 6 0 10 -5 10
-11 0 -15 -63 -6 -68 10 -3 10 0 12 12 8 10 -4 16 -1 16 8 0 8 -7 15 -15 15
-9 0 -12 6 -9 15 4 11 0 15 -16 15 -16 0 -20 -4 -16 -15 3 -8 1 -15 -4 -15 -6
0 -10 -7 -10 -16 0 -9 5 -12 11 -8 7 4 10 1 7 -7 -5 -16 -68 -25 -68 -10 0 6
7 11 15 11 18 0 20 16 4 26 -6 3 -14 1 -18 -5 -4 -6 -15 -9 -24 -5 -12 4 -17
1 -17 -10 0 -10 6 -13 15 -10 8 4 15 2 15 -4 0 -11 -23 -22 -46 -22 -11 0 -13
6 -9 22 6 17 4 20 -10 14 -13 -4 -16 -2 -11 9 3 9 0 15 -9 15 -8 0 -17 10 -20
23 -7 29 -3 67 7 67 4 0 8 5 8 10 0 16 -14 12 -26 -7z m330 -203 c27 -10 31
-17 18 -38 -7 -10 -16 -9 -45 3 -47 19 -153 19 -191 0 -15 -8 -32 -12 -37 -9
-17 10 -9 35 14 44 30 12 209 12 241 0z m-123 -70 c5 0 9 7 9 15 0 8 5 15 11
15 6 0 9 -10 7 -22 -2 -15 -10 -23 -23 -23 -15 0 -20 7 -22 30 -1 20 0 23 4 8
2 -13 9 -23 14 -23z m-37 14 c12 -30 6 -44 -18 -44 -33 0 -53 25 -36 45 16 20
46 19 54 -1z m96 -1 c0 -10 -5 -25 -10 -33 -7 -11 -10 -7 -10 18 0 17 5 32 10
32 6 0 10 -8 10 -17z m75 -19 c17 -12 18 -17 7 -35 -13 -20 -12 -21 17 -14 35
8 41 -8 16 -41 -12 -15 -14 -16 -15 -3 0 9 -11 21 -24 29 -16 8 -22 18 -19 28
5 12 1 14 -15 10 -25 -7 -26 -4 -12 23 13 23 19 23 45 3z m-265 -18 c0 -8 3
-22 6 -31 7 -17 6 -17 -45 12 -6 4 21 33 30 33 5 0 9 -6 9 -14z m130 -121 l0
-105 -90 0 c-100 0 -100 0 -80 72 19 66 96 138 148 138 21 0 22 -3 22 -105z
m92 80 c43 -29 83 -93 93 -147 l7 -38 -91 0 -91 0 0 90 0 90 30 -4 c40 -5 41
-6 28 -49 -11 -37 -28 -50 -28 -22 0 8 -4 15 -10 15 -12 0 -13 -10 -1 -29 5
-8 16 -11 31 -6 19 6 21 4 15 -16 -6 -18 -4 -21 10 -15 10 3 24 1 32 -5 23
-20 26 -2 4 28 -12 15 -22 41 -23 57 -3 32 -49 69 -74 59 -8 -3 -14 0 -14 6 0
19 44 12 82 -14z m-247 -5 c10 -11 15 -20 11 -20 -14 0 -46 21 -46 30 0 16 16
11 35 -10z m408 -179 c12 -2 8 -31 -5 -31 -17 1 -49 25 -42 33 3 3 13 4 22 2
9 -2 20 -4 25 -4z m-13 -51 c11 -6 17 -17 14 -25 -5 -11 -11 -12 -25 -4 -24
13 -26 -6 -1 -20 14 -9 15 -12 3 -20 -8 -5 -10 -14 -6 -21 6 -10 1 -11 -19 -6
-30 7 -34 -1 -9 -19 24 -17 8 -38 -17 -22 -25 15 -25 28 -1 54 11 11 19 27 19
34 -3 58 6 68 42 49z m-74 -144 c31 -32 6 -58 -27 -27 -12 11 -18 24 -14 30 9
15 24 14 41 -3z"/>
<path d="M1160 3230 c0 -5 7 -10 15 -10 8 0 15 5 15 10 0 6 -7 10 -15 10 -8 0
-15 -4 -15 -10z"/>
<path d="M1147 3130 c-16 -20 -16 -20 33 -20 28 0 50 2 50 4 0 4 -58 36 -64
36 -1 0 -9 -9 -19 -20z"/>
<path d="M1130 3089 c0 -5 -4 -7 -10 -4 -6 3 -7 -1 -4 -9 4 -10 1 -16 -7 -16
-12 0 -12 -2 0 -9 7 -5 10 -14 6 -21 -6 -9 -10 -9 -17 1 -7 10 -8 9 -4 -5 4
-11 1 -23 -6 -28 -7 -4 18 -6 56 -3 76 4 84 8 67 29 -9 10 -20 12 -41 6 -19
-5 -32 -5 -36 2 -10 15 15 26 53 23 36 -2 44 13 18 35 -12 10 -18 10 -32 -1
-13 -11 -17 -11 -20 -1 -6 15 -23 16 -23 1z"/>
<path d="M1280 3121 c0 -6 4 -13 10 -16 6 -3 7 1 4 9 -7 18 -14 21 -14 7z"/>
<path d="M1340 3127 c0 -2 11 -18 25 -37 29 -39 33 -32 8 11 -14 24 -33 39
-33 26z"/>
<path d="M1262 3008 c3 -7 15 -14 29 -16 24 -4 24 -3 4 12 -24 19 -38 20 -33
4z"/>
<path d="M1390 3005 c-10 -12 -10 -15 4 -15 9 0 16 7 16 15 0 8 -2 15 -4 15
-2 0 -9 -7 -16 -15z"/>
<path d="M1320 3000 c0 -5 7 -10 15 -10 8 0 15 5 15 10 0 6 -7 10 -15 10 -8 0
-15 -4 -15 -10z"/>
<path d="M1435 3494 c7 -15 11 -33 8 -40 -3 -8 0 -14 6 -14 14 0 15 47 1 55
-6 4 -8 11 -5 16 4 5 -1 9 -9 9 -13 0 -13 -4 -1 -26z"/>
<path d="M1220 3473 c0 -29 12 -24 17 7 2 11 -2 20 -7 20 -6 0 -10 -12 -10
-27z"/>
<path d="M1250 3474 c0 -14 4 -23 10 -19 6 3 10 15 10 26 0 10 -4 19 -10 19
-5 0 -10 -12 -10 -26z"/>
<path d="M1137 3444 c-8 -8 3 -34 14 -34 5 0 9 9 9 20 0 19 -11 26 -23 14z"/>
<path d="M1323 3435 c-3 -9 -3 -18 0 -21 9 -9 27 6 27 22 0 19 -19 18 -27 -1z"/>
<path d="M1567 3256 c-3 -8 1 -20 9 -27 12 -10 18 -9 31 3 8 9 12 21 9 27 -10
16 -43 14 -49 -3z m38 -6 c-3 -5 -10 -10 -16 -10 -5 0 -9 5 -9 10 0 6 7 10 16
10 8 0 12 -4 9 -10z"/>
<path d="M1655 3260 c3 -5 11 -10 16 -10 6 0 7 5 4 10 -3 6 -11 10 -16 10 -6
0 -7 -4 -4 -10z"/>
<path d="M1456 3235 c-20 -15 -14 -37 9 -29 13 5 64 -41 65 -58 0 -5 -11 -8
-25 -8 -37 0 -41 -24 -14 -82 25 -53 72 -89 92 -69 11 11 -7 41 -26 41 -13 0
-57 52 -57 68 0 6 12 12 26 12 23 0 25 -3 20 -24 -8 -33 18 -55 45 -38 16 10
21 10 25 -2 3 -8 20 -20 37 -27 67 -26 82 -59 29 -59 -43 0 -72 -26 -72 -64 0
-19 7 -39 15 -46 8 -7 15 -21 15 -31 0 -22 -32 -37 -96 -46 -28 -4 -52 -15
-69 -33 l-26 -27 36 -1 c29 -1 35 2 35 18 0 16 5 19 24 14 14 -3 46 4 82 20
56 23 59 26 56 56 -6 57 41 84 53 30 7 -32 69 -90 96 -90 19 0 29 -20 29 -58
0 -20 -3 -23 -12 -14 -16 16 -58 15 -58 0 0 -25 18 -41 39 -35 27 7 26 1 -4
-35 -25 -29 -34 -55 -16 -44 5 4 11 0 14 -6 3 -10 10 -8 25 5 11 11 18 25 16
32 -3 7 4 15 15 18 12 3 21 12 21 20 0 8 11 18 25 21 15 4 25 14 25 24 0 15 6
18 28 14 34 -4 56 18 47 47 -13 43 -75 33 -75 -13 0 -16 -7 -21 -30 -23 -28
-2 -30 0 -30 31 0 25 -5 35 -20 39 -29 7 -34 31 -19 82 15 49 26 47 43 -7 8
-24 18 -34 36 -36 22 -4 23 -2 10 14 -14 16 -13 17 7 12 12 -3 30 0 40 8 11 8
13 13 5 14 -10 0 -10 5 -2 20 17 32 1 69 -57 132 -42 45 -53 65 -53 91 0 37
15 57 43 57 14 0 17 -5 12 -20 -10 -30 11 -58 65 -85 58 -29 63 -24 18 18 -18
16 -25 23 -15 16 17 -11 18 -10 11 17 -13 57 -37 74 -100 74 -25 0 -54 -39
-54 -73 0 -35 38 -100 68 -116 10 -5 27 -25 37 -45 16 -29 17 -39 7 -60 -22
-48 -55 -32 -100 47 -26 45 -26 47 -7 47 21 0 19 37 -3 49 -13 7 -23 6 -31 -2
-10 -9 -17 -7 -32 12 -21 26 -24 53 -9 81 12 22 9 24 -87 78 l-72 40 -18 -39
c-21 -45 -30 -48 -43 -14 -5 14 -17 25 -27 25 -10 0 -27 7 -37 15 -24 18 -26
18 -50 0z m104 -46 c0 -5 -4 -9 -10 -9 -5 0 -10 7 -10 16 0 8 5 12 10 9 6 -3
10 -10 10 -16z m25 -118 c10 -17 -12 -21 -25 -6 -10 12 -10 15 3 15 9 0 18 -4
22 -9z m280 -52 c10 -15 -1 -23 -20 -15 -9 3 -13 10 -10 16 8 13 22 13 30 -1z
m-23 -111 c-15 -15 -26 -4 -18 18 5 13 9 15 18 6 9 -9 9 -15 0 -24z m-42 -63
c0 -8 -7 -15 -15 -15 -16 0 -20 12 -8 23 11 12 23 8 23 -8z m208 -92 c13 -25
4 -43 -19 -43 -25 0 -35 25 -19 45 16 20 27 19 38 -2z m-76 -75 c-15 -15 -26
-4 -18 18 5 13 9 15 18 6 9 -9 9 -15 0 -24z m-101 -3 c-1 -15 -24 -12 -29 3
-3 9 2 13 12 10 10 -1 17 -7 17 -13z"/>
<path d="M1705 3230 c3 -5 8 -10 11 -10 2 0 4 5 4 10 0 6 -5 10 -11 10 -5 0
-7 -4 -4 -10z"/>
<path d="M1745 3210 c3 -5 11 -10 16 -10 6 0 7 5 4 10 -3 6 -11 10 -16 10 -6
0 -7 -4 -4 -10z"/>
<path d="M1785 3180 c3 -5 11 -10 16 -10 6 0 7 5 4 10 -3 6 -11 10 -16 10 -6
0 -7 -4 -4 -10z"/>
<path d="M1040 3120 c0 -5 5 -10 10 -10 6 0 10 5 10 10 0 6 -4 10 -10 10 -5 0
-10 -4 -10 -10z"/>
<path d="M1166 2949 c-16 -4 -41 -5 -57 -2 l-29 5 15 -48 c8 -29 26 -58 42
-72 15 -12 34 -27 41 -33 21 -17 29 0 36 72 8 76 -1 91 -48 78z m28 -41 c-4
-18 -7 -42 -8 -53 -1 -18 -8 -21 -34 -16 -9 1 -46 61 -40 65 11 11 65 35 76
36 10 0 12 -8 6 -32z"/>
<path d="M1045 2915 c-5 -2 -22 -6 -37 -9 -16 -4 -28 -13 -28 -22 0 -20 44
-102 74 -138 l24 -29 7 24 c9 29 33 48 60 50 17 1 16 2 -5 8 -16 4 -34 25 -53
61 -32 62 -29 58 -42 55z m-1 -21 c9 -3 16 -17 16 -30 0 -13 4 -24 10 -24 5 0
7 -6 4 -14 -3 -9 2 -16 12 -18 15 -2 13 -6 -10 -21 -28 -19 -28 -19 -21 4 6
18 4 21 -9 16 -18 -7 -21 3 -6 21 6 6 7 10 4 7 -10 -7 -44 14 -44 28 0 7 5 18
12 25 14 14 12 14 32 6z"/>
<path d="M1022 2871 c4 -13 18 -16 19 -4 0 4 -5 9 -11 12 -7 2 -11 -2 -8 -8z"/>
<path d="M1133 2763 c-4 -10 -13 -23 -20 -28 -26 -20 -2 -41 73 -64 82 -25
125 -24 169 5 l27 17 -64 17 c-76 20 -133 44 -142 59 -11 17 -36 13 -43 -6z
m72 -43 c3 -6 -1 -13 -10 -16 -19 -8 -30 0 -20 15 8 14 22 14 30 1z m73 -31
c-2 -6 -8 -10 -13 -10 -5 0 -11 4 -13 10 -2 6 4 11 13 11 9 0 15 -5 13 -11z"/>
<path d="M1745 2760 c-11 -17 5 -51 23 -48 23 4 23 52 0 56 -9 2 -19 -2 -23
-8z m35 -14 c0 -8 -4 -17 -9 -21 -12 -7 -24 12 -16 25 9 15 25 12 25 -4z"/>
<path d="M940 2683 c-8 -3 -58 -33 -110 -67 -52 -33 -115 -65 -139 -71 l-44
-12 35 -26 c51 -40 83 -35 174 24 87 57 143 84 153 73 3 -3 -4 -13 -16 -21
-28 -19 -28 -27 -2 -83 12 -25 27 -56 33 -70 19 -41 60 -54 192 -58 163 -6
229 12 250 66 8 20 21 50 29 65 21 40 19 63 -7 81 -12 9 -19 18 -16 22 10 9
89 -29 158 -76 77 -53 117 -60 164 -30 40 24 46 40 16 40 -26 0 -71 23 -184
94 -121 76 -170 76 -209 -1 -22 -41 -22 -41 9 -35 17 3 33 -3 50 -18 28 -27
30 -42 9 -60 -13 -10 -19 -10 -33 2 -9 9 -28 21 -42 27 -21 10 -19 7 8 -16 18
-15 32 -31 32 -34 0 -11 -84 -29 -162 -35 -76 -7 -205 8 -241 28 -21 11 -21
12 -3 22 34 20 61 44 56 49 -3 3 -25 -8 -49 -25 -42 -28 -45 -29 -58 -12 -18
25 -17 29 19 57 25 20 36 23 55 16 l23 -9 -20 40 c-11 22 -29 44 -39 50 -21
11 -66 12 -91 3z m599 -17 c14 -17 -1 -56 -22 -56 -28 1 -38 16 -28 43 12 30
32 35 50 13z m-573 -20 c3 -14 3 -30 -1 -35 -16 -28 -61 3 -52 36 4 16 6 15
12 -4 10 -31 29 -29 21 2 -4 14 -2 25 4 25 5 0 12 -11 16 -24z m633 -10 c8
-10 9 -16 1 -21 -5 -3 -10 -11 -10 -18 0 -8 3 -8 12 1 28 28 75 3 57 -30 -13
-25 -39 -23 -71 7 -15 14 -32 25 -37 25 -7 0 -7 9 1 25 13 28 30 32 47 11z
m-701 -31 c15 -32 15 -32 -3 -39 -9 -3 -21 4 -32 20 -14 22 -14 27 -2 35 21
13 25 11 37 -16z m-53 -36 c10 -31 0 -33 -19 -4 -14 21 -14 25 -2 25 8 0 18
-9 21 -21z m855 3 c0 -4 15 -13 33 -21 22 -9 27 -14 17 -18 -8 -3 -23 -13 -34
-22 -18 -15 -18 -15 -12 6 11 36 -4 49 -25 22 -20 -26 -26 -10 -9 22 11 19 30
26 30 11z m-896 -17 c17 -18 12 -41 -12 -50 -10 -4 -22 1 -29 11 -16 23 -17
41 0 47 20 9 25 8 41 -8z m329 -101 c28 -5 35 -10 28 -17 -6 -6 -11 -19 -11
-29 0 -10 -4 -18 -10 -18 -5 0 -10 11 -10 24 0 30 -26 42 -33 16 -3 -11 0 -21
7 -24 6 -3 0 -4 -14 -3 -20 2 -26 8 -28 35 -3 29 -1 33 15 28 10 -3 35 -8 56
-12z m283 -51 c-3 -3 -12 0 -21 7 -12 10 -15 10 -15 -4 0 -9 -4 -16 -10 -16
-5 0 -10 5 -10 10 0 6 -11 3 -25 -6 -21 -14 -28 -14 -42 -3 -13 11 -17 12 -21
1 -3 -10 -8 -8 -18 5 -13 17 -15 17 -27 1 -16 -21 -27 -14 -27 17 0 29 10 37
27 24 10 -9 17 -8 28 1 10 8 15 9 15 1 0 -7 7 -7 26 1 19 9 30 9 44 0 15 -9
19 -8 24 5 5 12 9 13 20 4 11 -9 16 -7 22 6 6 14 9 11 12 -15 2 -19 1 -36 -2
-39z"/>
<path d="M1506 2644 c-4 -10 -1 -14 6 -12 15 5 23 28 10 28 -5 0 -13 -7 -16
-16z"/>
<path d="M1622 2579 c2 -6 8 -10 13 -10 5 0 11 4 13 10 2 6 -4 11 -13 11 -9 0
-15 -5 -13 -11z"/>
<path d="M770 2541 c0 -6 5 -13 10 -16 6 -3 10 1 10 9 0 9 -4 16 -10 16 -5 0
-10 -4 -10 -9z"/>
<path d="M1300 2415 c0 -8 7 -15 15 -15 8 0 15 7 15 15 0 8 -7 15 -15 15 -8 0
-15 -7 -15 -15z"/>
<path d="M1210 2623 c0 -9 -8 -25 -17 -36 -10 -11 -12 -17 -5 -13 8 5 19 1 28
-10 13 -18 14 -17 9 7 -8 35 19 59 34 31 7 -13 7 -22 -1 -30 -9 -9 -9 -12 -1
-12 7 0 15 5 18 10 3 6 10 10 16 10 14 0 11 -28 -3 -33 -8 -3 -6 -6 5 -6 21
-1 23 37 2 45 -8 4 -15 14 -15 24 0 19 -19 30 -51 30 -11 0 -19 -7 -19 -17z"/>
<path d="M1170 2556 c0 -3 9 -10 20 -16 11 -6 20 -8 20 -6 0 3 -9 10 -20 16
-11 6 -20 8 -20 6z"/>
<path d="M1241 2528 c0 -10 -8 -18 -18 -18 -14 0 -14 -2 3 -21 l19 -21 17 22
c10 12 18 27 17 34 0 7 -2 7 -6 -1 -7 -18 -21 -16 -26 5 -4 16 -5 16 -6 0z"/>
<path d="M540 1680 l0 -342 168 4 c189 4 234 17 304 85 64 63 83 119 83 258 0
105 -3 126 -24 173 -13 29 -42 68 -64 87 -66 57 -111 68 -299 73 l-168 4 0
-342z m335 249 c21 -6 53 -25 71 -43 82 -82 85 -303 7 -397 -45 -53 -93 -69
-215 -69 l-108 0 0 253 c0 140 3 257 7 260 11 11 195 8 238 -4z"/>
<path d="M3050 1905 l0 -75 -40 0 c-39 0 -40 -1 -40 -35 0 -34 1 -35 40 -35
l40 0 0 -175 c0 -106 4 -184 11 -198 15 -33 49 -47 114 -47 l55 0 0 35 c0 30
-3 35 -24 35 -14 0 -36 4 -50 10 l-26 10 0 165 0 165 50 0 50 0 0 35 0 35 -50
0 -50 0 0 75 0 75 -40 0 -40 0 0 -75z"/>
<path d="M5088 1908 l-3 -73 -42 -3 c-42 -3 -43 -4 -43 -37 0 -33 1 -34 43
-37 l42 -3 5 -187 c6 -222 5 -220 104 -226 63 -4 65 -3 71 21 9 33 0 47 -28
47 -12 0 -32 3 -44 6 -23 6 -23 9 -23 175 l0 168 48 3 c45 3 47 4 47 33 0 29
-2 30 -47 33 l-47 3 -3 72 -3 72 -37 3 -37 3 -3 -73z"/>
<path d="M1290 1825 c-46 -21 -87 -60 -113 -110 -18 -32 -22 -57 -22 -130 0
-99 17 -145 72 -197 78 -74 217 -77 304 -6 23 19 59 80 59 101 0 13 -8 17 -34
17 -28 0 -38 -6 -55 -35 -65 -111 -249 -68 -263 61 l-3 29 184 3 184 2 -6 58
c-7 79 -46 155 -99 189 -51 34 -152 43 -208 18z m151 -70 c34 -18 69 -69 69
-102 0 -23 -2 -23 -134 -23 -74 0 -137 4 -140 8 -2 4 4 27 14 50 33 73 120
103 191 67z"/>
<path d="M1815 1827 c-17 -8 -36 -21 -44 -30 -19 -24 -31 -21 -28 6 2 19 -3
22 -41 25 l-42 3 2 -338 3 -338 38 -3 c42 -4 40 -13 38 132 0 48 2 92 5 97 3
5 24 -4 46 -19 36 -23 52 -27 117 -27 68 0 80 3 118 30 23 17 55 53 70 80 25
44 28 60 28 140 0 81 -3 95 -30 144 -42 77 -89 105 -179 109 -44 1 -82 -3
-101 -11z m155 -79 c49 -34 70 -81 70 -158 -1 -115 -45 -178 -133 -187 -84 -8
-150 53 -162 151 -11 88 29 182 89 206 41 17 102 11 136 -12z"/>
<path d="M2283 1819 c-47 -23 -83 -72 -83 -113 0 -23 4 -26 36 -26 30 0 37 4
46 30 13 38 54 60 112 60 59 0 92 -16 107 -51 9 -24 9 -33 -5 -54 -9 -14 -20
-25 -24 -25 -4 0 -47 -7 -96 -16 -152 -26 -198 -63 -198 -155 0 -94 61 -142
174 -137 56 3 75 9 113 36 32 22 45 27 45 17 0 -42 87 -74 118 -43 21 21 15
56 -10 60 -23 3 -23 6 -28 178 -3 118 -9 183 -18 198 -34 60 -202 84 -289 41z
m227 -276 c0 -76 -46 -126 -128 -139 -97 -15 -156 56 -99 121 18 21 39 28 112
41 49 9 92 17 94 19 10 11 21 -10 21 -42z"/>
<path d="M2854 1826 c-17 -8 -45 -31 -62 -52 l-32 -39 0 48 0 47 -35 0 -35 0
0 -246 0 -245 38 3 37 3 5 155 c3 95 10 163 17 176 22 38 70 71 112 78 40 6
41 7 41 46 0 37 -2 40 -27 40 -16 -1 -42 -7 -59 -14z"/>
<path d="M3445 1823 c-16 -8 -40 -25 -52 -36 l-23 -20 0 32 c0 31 -1 32 -37
29 l-38 -3 -3 -220 c-1 -121 0 -230 3 -243 5 -20 11 -23 42 -20 l37 3 -3 141
c-1 79 2 160 8 182 16 57 69 102 122 102 89 0 99 -26 99 -256 l0 -174 40 0 40
0 0 170 c0 189 7 218 60 245 41 21 103 19 131 -4 23 -19 24 -24 29 -213 l5
-193 38 -3 37 -3 0 211 0 210 -34 37 c-30 33 -39 37 -94 41 -78 6 -103 -1
-147 -40 l-36 -31 -15 22 c-8 11 -28 28 -44 36 -38 19 -127 19 -165 -2z"/>
<path d="M4195 1821 c-89 -41 -137 -121 -136 -229 0 -123 40 -199 124 -238
118 -54 244 -17 298 89 23 44 18 57 -21 57 -24 0 -35 -8 -54 -39 -59 -92 -208
-75 -250 29 -29 73 -36 69 167 72 l182 3 -2 47 c0 26 -7 64 -13 84 -16 46 -75
113 -117 131 -46 19 -131 16 -178 -6z m154 -69 c35 -19 71 -72 71 -104 0 -16
-13 -18 -134 -18 -74 0 -137 4 -140 9 -15 24 38 104 79 121 34 15 89 11 124
-8z"/>
<path d="M4715 1822 c-16 -11 -36 -26 -44 -35 -20 -25 -30 -21 -28 11 2 24 -1
27 -35 30 l-38 3 0 -245 0 -246 40 0 40 0 0 160 c0 143 2 165 21 201 46 92
193 93 218 1 6 -20 11 -110 11 -200 l0 -163 38 3 37 3 0 190 c0 218 -10 255
-75 287 -48 24 -145 24 -185 0z"/>
<path d="M644 1029 c-54 -15 -78 -51 -82 -124 l-4 -65 -39 0 c-38 0 -39 -1
-39 -35 0 -34 1 -35 40 -35 l40 0 2 -207 3 -208 38 -3 37 -3 0 210 0 210 48 3
c45 3 47 4 50 35 3 31 3 32 -45 35 -48 3 -48 3 -51 40 -5 59 11 78 63 78 44 0
45 0 45 34 0 45 -34 56 -106 35z"/>
<path d="M1860 1020 c0 -5 0 -152 0 -325 0 -173 0 -322 0 -330 0 -13 30 -15
233 -13 l232 3 0 35 0 35 -187 3 -187 2 -3 88 c-2 48 -2 99 0 114 l3 28 172 2
172 3 0 35 0 35 -172 3 -173 2 0 105 0 105 185 0 185 0 0 40 0 40 -230 0
c-147 0 -230 -4 -230 -10z"/>
<path d="M2760 911 c0 -67 -4 -121 -9 -121 -5 0 -15 7 -22 17 -40 48 -167 58
-240 20 -120 -64 -156 -281 -66 -399 73 -95 219 -115 307 -42 l30 26 0 -32 c0
-30 1 -31 38 -28 l37 3 0 335 0 335 -37 3 -38 3 0 -120z m-80 -146 c72 -37
103 -178 58 -264 -32 -62 -68 -86 -128 -86 -86 0 -139 57 -147 157 -8 95 25
176 81 198 34 14 105 11 136 -5z"/>
<path d="M4700 981 l0 -51 41 0 40 0 -3 48 c-3 47 -3 47 -40 50 l-38 3 0 -50z"/>
<path d="M4448 918 l-3 -73 -37 -3 c-36 -3 -38 -5 -38 -38 0 -33 1 -34 40 -34
l40 0 0 -185 c0 -211 2 -218 83 -230 73 -11 92 -5 95 33 3 30 1 32 -28 32 -69
0 -70 3 -70 185 l0 165 50 0 50 0 0 35 0 35 -50 0 -50 0 0 75 0 75 -40 0 -39
0 -3 -72z"/>
<path d="M900 834 c-152 -66 -189 -305 -66 -428 74 -75 204 -86 299 -26 116
73 140 288 44 397 -18 20 -50 44 -72 54 -50 23 -156 24 -205 3z m176 -74 c97
-61 98 -254 1 -324 -39 -29 -115 -28 -153 0 -54 40 -68 70 -72 148 -5 86 19
145 71 176 42 26 110 26 153 0z"/>
<path d="M1475 836 c-17 -7 -45 -31 -63 -52 l-31 -39 -1 48 0 47 -35 0 -35 0
0 -235 c0 -129 0 -238 0 -242 0 -5 17 -8 38 -8 l37 0 5 155 c3 95 10 163 17
176 21 37 71 72 113 79 39 7 40 8 40 46 0 36 -2 39 -27 39 -16 -1 -42 -7 -58
-14z"/>
<path d="M3543 831 c-84 -39 -129 -138 -121 -266 6 -91 42 -157 103 -192 114
-64 268 -25 316 81 29 63 26 76 -18 76 -35 0 -39 -4 -54 -39 -22 -51 -61 -76
-120 -76 -91 0 -144 66 -143 180 0 120 50 185 142 185 55 0 94 -21 119 -62 16
-27 25 -33 51 -32 42 1 46 6 33 47 -14 41 -65 91 -110 106 -53 17 -150 13
-198 -8z"/>
<path d="M4010 828 c-46 -25 -76 -64 -82 -108 -3 -22 1 -25 34 -28 34 -3 38 0
52 32 17 42 47 56 114 56 60 0 94 -18 103 -54 16 -58 -4 -70 -164 -100 -97
-18 -142 -49 -157 -106 -13 -47 0 -108 28 -133 65 -59 180 -61 264 -3 l35 23
10 -28 c20 -53 115 -51 121 3 3 21 -1 27 -20 30 -23 3 -23 5 -28 178 -3 109
-10 183 -17 196 -25 43 -63 58 -158 62 -80 3 -95 1 -135 -20z m223 -290 c-4
-63 -36 -103 -97 -119 -109 -29 -186 43 -123 116 18 21 38 29 112 41 50 9 92
18 94 20 12 11 18 -12 14 -58z"/>
<path d="M4985 831 c-82 -38 -128 -123 -128 -236 0 -181 134 -288 307 -244 96
24 156 107 164 225 8 124 -38 212 -133 255 -54 25 -157 25 -210 0z m186 -74
c73 -48 97 -179 49 -265 -44 -78 -143 -103 -210 -54 -88 66 -93 231 -9 307 33
30 46 35 88 35 33 0 58 -7 82 -23z"/>
<path d="M5552 833 c-18 -9 -42 -27 -52 -41 l-20 -25 0 37 c0 35 -1 36 -40 36
l-40 0 2 -242 3 -243 38 -3 37 -3 0 148 c0 169 8 208 50 248 23 22 41 29 83
33 46 4 57 1 83 -21 l29 -25 3 -192 3 -191 37 3 37 3 0 200 c0 223 -3 236 -68
275 -40 25 -138 27 -185 3z"/>
<path d="M2941 653 c0 -124 5 -200 13 -223 35 -97 198 -119 284 -37 l32 31 0
-38 c0 -37 0 -37 38 -34 l37 3 0 240 0 240 -36 3 -37 3 -4 -163 c-3 -126 -8
-170 -21 -194 -43 -82 -165 -100 -207 -31 -18 29 -20 51 -20 210 l0 177 -40 0
-40 0 1 -187z"/>
<path d="M4700 594 l0 -245 38 3 37 3 3 243 2 242 -40 0 -40 0 0 -246z"/>
</g>
</svg>
