<?xml version="1.0" standalone="no"?>
<!DOCTYPE svg PUBLIC "-//W3C//DTD SVG 20010904//EN"
 "http://www.w3.org/TR/2001/REC-SVG-20010904/DTD/svg10.dtd">
<svg version="1.0" xmlns="http://www.w3.org/2000/svg"
 width="296.000000pt" height="469.000000pt" viewBox="0 0 296.000000 469.000000"
 preserveAspectRatio="xMidYMid meet">

<g transform="translate(0.000000,469.000000) scale(0.100000,-0.100000)"
fill="#000000" stroke="none">
<path d="M1528 4354 c-64 -20 -108 -71 -108 -125 0 -78 39 -117 150 -148 96
-28 127 -42 137 -64 34 -74 -89 -123 -150 -59 -15 15 -27 33 -27 40 0 8 -21
12 -65 12 l-65 0 6 -27 c22 -92 87 -133 214 -133 89 0 135 15 176 59 64 68 62
156 -5 211 -19 17 -43 30 -53 30 -9 0 -20 4 -23 10 -3 5 -27 12 -53 16 -69 9
-116 34 -120 63 -5 32 21 51 71 51 30 0 45 -7 67 -30 25 -27 34 -30 88 -30
l60 0 -15 40 c-18 45 -44 65 -111 86 -58 17 -112 16 -174 -2z"/>
<path d="M367 4353 c-4 -3 -7 -118 -7 -255 l0 -248 207 2 206 3 0 45 0 45
-134 5 -134 5 -3 39 c-2 22 -1 50 3 63 6 24 7 24 126 22 l121 -1 2 46 2 45
-126 3 c-123 3 -125 3 -128 27 -2 12 -1 34 2 47 6 24 8 24 136 24 l130 0 0 45
0 45 -198 0 c-109 0 -202 -3 -205 -7z"/>
<path d="M897 4353 c-4 -3 -7 -118 -7 -255 l0 -248 207 2 206 3 0 45 0 45
-134 5 -134 5 0 60 0 60 123 0 122 0 0 32 c0 17 3 38 6 47 5 13 -11 16 -123
18 -126 3 -128 3 -131 27 -2 12 -1 34 2 47 6 24 8 24 136 24 l130 0 0 45 0 45
-198 0 c-109 0 -202 -3 -205 -7z"/>
<path d="M1890 4347 c0 -7 6 -37 14 -67 7 -30 21 -91 31 -135 30 -139 46 -209
52 -235 4 -14 7 -32 7 -40 1 -12 17 -16 72 -18 71 -3 72 -3 77 25 3 15 7 35
10 43 2 8 7 29 12 45 7 29 23 87 47 168 14 45 43 51 51 10 3 -16 12 -54 21
-86 30 -111 47 -172 50 -187 2 -12 19 -15 72 -15 l69 0 7 35 c9 45 37 173 49
225 6 22 12 49 14 60 2 11 9 43 15 70 6 28 13 65 16 83 l4 32 -60 0 c-33 0
-60 -2 -60 -4 0 -3 -9 -51 -21 -108 -11 -57 -22 -115 -23 -131 -2 -29 -21 -55
-32 -44 -4 4 -13 30 -21 59 -25 92 -44 162 -51 193 -8 29 -10 30 -73 33 l-65
3 -27 -89 c-14 -48 -29 -107 -33 -130 -7 -44 -29 -72 -44 -56 -8 9 -18 58 -42
207 l-11 67 -63 0 c-46 0 -64 -4 -64 -13z"/>
<path d="M1165 3583 c-3 -65 -10 -145 -14 -178 -11 -77 -2 -101 41 -110 90
-18 164 -77 188 -151 15 -46 8 -139 -14 -182 -25 -49 -76 -102 -97 -102 -10 0
-19 -4 -19 -9 0 -6 -19 -13 -43 -16 -46 -7 -104 11 -141 43 -30 27 -75 102
-70 117 3 7 1 16 -5 20 -29 17 7 165 51 212 13 14 24 42 28 76 9 68 4 80 -31
72 -22 -5 -30 -2 -39 15 -7 12 -10 33 -7 46 8 46 -15 36 -82 -32 -64 -67 -67
-69 -121 -72 -73 -4 -127 -19 -134 -37 -3 -9 -18 -15 -35 -15 -26 0 -34 -7
-51 -41 -12 -23 -19 -43 -17 -45 3 -3 33 4 67 16 57 19 64 20 86 5 30 -20 30
-33 0 -45 -29 -11 -40 -26 -26 -35 20 -12 10 -23 -27 -30 -44 -8 -73 -30 -73
-56 0 -10 -5 -21 -10 -24 -6 -4 -8 -10 -5 -14 5 -10 55 -2 55 9 0 10 47 30 70
30 23 0 27 -25 7 -37 -8 -4 -24 -37 -35 -72 -40 -120 -25 -279 41 -421 46
-101 118 -197 167 -224 10 -6 43 -28 73 -49 29 -21 80 -49 113 -62 l59 -24 -3
-43 c-3 -59 -26 -118 -104 -275 -30 -60 -56 -100 -62 -96 -6 3 -19 13 -28 21
-12 10 -29 13 -54 9 -41 -7 -69 -29 -91 -71 -15 -28 -15 -29 11 -22 21 5 27 2
32 -19 8 -32 28 -32 42 0 13 29 41 32 119 14 41 -10 54 -9 81 5 42 21 55 20
49 -4 -8 -30 4 -25 48 20 l39 40 -21 22 c-21 21 -22 21 -68 4 -75 -29 -75 -28
34 112 35 45 68 82 73 82 5 0 7 4 4 8 -3 5 5 20 17 33 12 13 27 31 32 41 6 10
23 35 38 57 60 84 63 142 14 252 -14 30 -32 78 -42 106 -15 49 -18 52 -38 42
-31 -16 -57 -50 -57 -76 0 -28 -10 -53 -21 -53 -5 0 -9 23 -9 51 0 45 4 55 34
85 29 29 40 34 63 28 30 -6 63 -38 63 -59 0 -20 24 -35 47 -29 15 4 22 16 25
40 2 19 1 39 -3 45 -10 16 4 61 23 72 12 8 26 3 58 -23 l42 -33 31 31 c29 30
30 33 16 59 -8 15 -20 33 -28 39 -20 16 -6 62 24 76 19 8 31 8 50 0 36 -17 65
-15 65 3 0 9 7 18 15 21 25 10 16 38 -18 54 -29 14 -32 19 -32 60 0 42 2 46
33 55 18 5 47 21 64 35 30 25 30 26 15 63 -15 36 -18 37 -59 35 -40 -3 -43 -1
-46 25 -4 32 21 77 42 77 22 0 40 56 30 92 -9 31 -11 32 -57 29 -60 -3 -87 6
-87 30 0 10 4 19 9 19 5 0 11 8 14 18 4 9 16 30 29 45 21 26 22 30 7 55 -19
34 -43 39 -85 16 -31 -17 -37 -17 -61 -4 -43 25 -50 45 -29 84 20 37 12 61
-27 86 -18 11 -23 9 -39 -11 -71 -92 -89 -92 -102 -1 l-9 62 -47 0 -48 0 -7
-117z m-326 -291 c7 -14 6 -25 -5 -40 -25 -37 -65 -1 -44 39 13 24 36 24 49 1z"/>
<path d="M2650 3481 c-17 -5 -21 -9 -12 -15 19 -12 15 -18 -40 -77 -58 -60
-232 -265 -235 -277 -2 -4 6 -18 17 -32 l20 -25 38 41 c55 60 143 160 203 232
38 46 58 62 72 58 16 -4 18 1 15 47 -3 47 -5 52 -28 54 -14 1 -36 -2 -50 -6z"/>
<path d="M2091 3374 c-12 -19 -21 -39 -21 -44 0 -13 -38 -23 -65 -16 -12 3
-25 15 -28 26 -4 16 -13 20 -46 20 -35 0 -43 -4 -53 -25 -9 -20 -8 -31 2 -51
12 -22 12 -29 -2 -52 -9 -15 -28 -36 -42 -46 -22 -17 -29 -18 -52 -7 -52 23
-75 -40 -33 -93 30 -38 40 -90 23 -114 -11 -16 -52 -34 -74 -33 -12 0 -20 -44
-14 -75 5 -30 10 -34 36 -34 36 0 68 -16 68 -34 0 -24 36 -46 76 -46 61 0 67
13 34 78 -36 68 -45 125 -31 191 23 109 93 171 194 171 82 0 140 -38 181 -119
35 -68 26 -185 -19 -253 -53 -81 -139 -101 -483 -112 -90 -3 -168 -9 -173 -12
-11 -7 -12 -34 -1 -34 17 0 33 -50 22 -69 -14 -27 -78 -81 -96 -81 -8 0 -19
11 -26 24 -26 59 -73 36 -63 -31 8 -52 -7 -83 -40 -83 -18 0 -25 -5 -25 -19 0
-11 5 -23 10 -26 6 -3 10 -14 10 -23 0 -23 43 -114 64 -135 22 -21 30 -16 62
35 66 104 182 176 301 186 57 4 66 2 111 -27 32 -20 54 -43 62 -64 7 -18 20
-50 30 -72 10 -22 29 -64 41 -94 20 -45 30 -56 73 -77 27 -13 55 -24 61 -24
15 0 51 -40 59 -66 8 -28 -19 -180 -38 -208 -12 -19 -24 -23 -71 -25 -32 -1
-66 -6 -76 -12 -23 -12 -49 -60 -49 -90 0 -21 1 -21 18 -6 23 21 32 21 47 0
13 -17 14 -17 32 0 21 18 53 23 53 8 0 -19 85 -23 126 -6 21 9 49 14 61 10 31
-7 50 3 63 36 10 23 10 32 0 44 -19 23 -41 18 -76 -16 -61 -59 -71 -10 -23
109 17 42 40 97 52 122 11 25 28 70 37 100 20 68 12 95 -36 110 -43 14 -54 35
-54 100 0 108 -63 281 -112 306 -35 18 -36 39 0 61 15 10 33 23 40 30 19 19
53 26 65 14 21 -21 56 -12 72 19 20 39 19 53 -5 75 -24 22 -27 81 -4 113 10
15 25 22 49 22 31 0 33 2 37 39 5 55 1 61 -36 61 -19 0 -40 8 -49 18 -21 23
-22 88 -2 135 11 27 12 43 5 63 -9 23 -15 26 -43 21 -17 -3 -39 -8 -47 -11 -8
-3 -30 3 -48 14 -29 18 -32 24 -30 66 1 35 -3 50 -17 60 -30 23 -52 16 -74
-22z"/>
<path d="M295 2662 c-3 -3 -5 -13 -5 -23 0 -10 -8 -22 -17 -28 -16 -9 -16 -12
10 -39 33 -34 35 -51 18 -113 -11 -39 -10 -51 3 -84 21 -50 20 -65 -4 -65 -42
0 -11 -41 45 -60 41 -14 51 -9 58 26 3 18 -1 34 -14 47 -23 25 -24 37 -4 37
19 0 74 -27 93 -46 7 -8 20 -14 28 -14 8 0 31 -15 51 -33 50 -44 212 -139 224
-132 5 4 9 13 9 21 0 8 6 14 13 14 7 0 18 23 24 51 13 53 7 82 -21 92 -8 3
-38 40 -67 81 -29 42 -59 76 -66 76 -9 0 -13 -17 -13 -61 l0 -62 -34 6 c-44 7
-218 92 -241 117 -15 17 -16 24 -7 46 27 57 5 125 -44 140 -19 6 -36 9 -39 6z"/>
<path d="M1730 2397 c-118 -31 -170 -94 -170 -204 0 -82 33 -131 113 -168 23
-11 37 -24 37 -36 0 -11 -4 -19 -10 -19 -5 0 -10 -15 -10 -34 0 -43 -14 -80
-48 -130 -26 -38 -27 -38 -77 -33 -73 7 -135 -32 -135 -85 0 -31 3 -33 31 -18
15 9 19 7 19 -5 0 -31 31 -28 65 5 l34 33 26 -19 c15 -10 41 -27 57 -36 30
-16 32 -16 66 7 27 18 40 22 54 14 22 -12 50 1 72 33 21 30 20 45 -4 58 -15 8
-29 6 -59 -10 -52 -26 -65 -26 -57 3 8 35 75 152 105 185 36 39 81 125 73 138
-4 6 -17 16 -29 22 -12 7 -29 32 -39 57 -22 58 -11 85 51 123 25 15 45 30 45
35 0 4 -17 26 -37 47 -31 33 -46 41 -83 44 -25 3 -65 -1 -90 -7z"/>
<path d="M513 1365 c4 -42 13 -55 106 -150 55 -57 101 -111 101 -120 0 -55
-53 -80 -167 -80 l-83 0 0 -46 0 -47 93 -5 c170 -9 273 35 298 127 19 69 -1
108 -107 218 -69 71 -94 104 -94 122 0 26 -1 26 -76 26 l-77 0 6 -45z"/>
<path d="M930 1360 l0 -50 185 0 c102 0 188 1 191 3 4 1 7 23 8 50 l1 47 -192
0 -193 0 0 -50z"/>
<path d="M1390 1360 l0 -49 205 -3 205 -3 0 53 0 52 -205 0 -205 0 0 -50z"/>
<path d="M1890 1167 l0 -245 71 -4 c39 -2 73 0 76 4 2 5 3 88 2 187 -1 98 2
184 5 190 8 12 282 16 323 5 37 -10 44 -49 41 -222 l-3 -162 78 0 79 0 -4 193
c-4 210 -6 219 -65 264 l-36 28 -284 4 -283 3 0 -245z"/>
<path d="M961 1113 c6 -97 18 -137 48 -160 30 -23 116 -39 196 -37 l80 3 3 50
3 51 -38 1 c-21 1 -54 1 -73 0 -60 -2 -74 18 -79 109 l-3 80 -72 0 -71 0 6
-97z"/>
<path d="M1390 1065 l0 -145 189 0 c104 0 196 -3 205 -6 13 -5 16 3 16 50 l0
56 -130 0 -130 0 0 45 0 45 130 0 130 0 0 50 0 50 -205 0 -205 0 0 -145z"/>
<path d="M2155 1066 l0 -145 68 -3 67 -3 0 148 0 147 -67 0 -68 0 0 -144z"/>
<path d="M553 726 c-67 -22 -110 -53 -132 -100 -50 -102 3 -216 118 -255 43
-14 164 -14 216 0 38 11 115 75 115 97 0 5 -11 12 -25 15 -21 3 -31 -3 -51
-29 -65 -85 -242 -82 -302 6 -20 30 -23 44 -20 97 3 52 9 68 33 93 38 40 83
53 166 48 61 -3 72 -7 102 -36 51 -50 107 -40 67 11 -45 57 -189 83 -287 53z"/>
<path d="M950 619 c0 -6 29 -65 65 -130 36 -65 65 -125 65 -134 0 -29 -46 -65
-85 -65 -33 0 -35 -1 -24 -21 9 -18 17 -21 52 -16 56 8 82 38 170 202 97 178
96 175 64 175 -23 0 -33 -14 -82 -105 -31 -58 -58 -105 -60 -105 -2 0 -29 47
-60 105 -48 89 -60 105 -81 105 -13 0 -24 -5 -24 -11z"/>
<path d="M1350 494 l0 -135 27 3 c26 3 28 6 25 46 -10 128 24 192 100 192 69
0 72 -6 78 -127 5 -108 5 -108 32 -111 l26 -3 4 100 c4 118 12 131 86 139 41
4 53 1 71 -17 19 -19 21 -32 21 -122 l0 -100 26 3 27 3 -2 110 c-1 104 -3 111
-27 133 -34 30 -134 31 -178 3 -29 -19 -30 -19 -54 0 -31 24 -129 26 -173 4
-26 -14 -30 -14 -35 0 -3 8 -17 15 -30 15 l-24 0 0 -136z"/>
<path d="M1984 617 c-2 -7 -3 -67 -2 -133 l3 -119 28 -3 27 -3 0 78 c0 54 5
89 18 113 16 32 21 35 67 38 47 3 70 16 59 34 -10 16 -97 9 -117 -9 -18 -17
-19 -17 -28 0 -12 20 -47 23 -55 4z"/>
<path d="M2237 623 c-4 -3 -7 -44 -7 -90 0 -104 16 -146 60 -162 49 -17 121
-13 162 8 36 18 37 18 41 -1 4 -14 13 -19 29 -16 13 2 22 6 21 11 -2 4 -3 63
-3 132 l0 125 -24 0 c-23 0 -24 -2 -28 -95 -4 -115 -17 -135 -96 -143 -44 -4
-54 -1 -76 21 -24 24 -26 32 -26 122 0 93 -1 95 -23 95 -13 0 -27 -3 -30 -7z"/>
</g>
</svg>
