<?xml version="1.0" standalone="no"?>
<!DOCTYPE svg PUBLIC "-//W3C//DTD SVG 20010904//EN"
 "http://www.w3.org/TR/2001/REC-SVG-20010904/DTD/svg10.dtd">
<svg version="1.0" xmlns="http://www.w3.org/2000/svg"
 width="400.000000pt" height="400.000000pt" viewBox="0 0 400.000000 400.000000"
 preserveAspectRatio="xMidYMid meet">

<g transform="translate(0.000000,400.000000) scale(0.100000,-0.100000)"
fill="#000000" stroke="none">
<path d="M1645 3855 c-99 -8 -205 -19 -236 -24 -30 -6 -67 -11 -82 -11 -107 0
-505 -103 -666 -172 -69 -29 -203 -113 -235 -147 l-29 -31 -5 -592 c-4 -620
-2 -674 43 -893 47 -232 119 -437 227 -640 34 -64 138 -237 147 -245 4 -3 24
-31 46 -64 90 -132 322 -380 458 -489 43 -34 91 -72 105 -85 33 -29 268 -186
325 -219 114 -64 239 -123 260 -123 12 0 54 16 92 36 142 74 200 106 216 120
8 8 21 14 27 14 7 0 12 5 12 10 0 6 5 10 10 10 6 0 47 26 93 57 245 168 475
382 648 603 140 178 291 441 358 625 18 50 37 99 42 110 15 36 35 114 81 310
20 86 21 123 25 776 l4 686 -38 32 c-21 17 -43 36 -50 41 -31 25 -187 100
-268 130 -49 17 -99 36 -110 40 -25 10 -210 56 -285 70 -332 64 -857 92 -1215
65z m805 -64 c240 -21 530 -76 720 -137 50 -16 56 -18 153 -63 37 -17 71 -31
75 -31 4 -1 39 -22 77 -49 l70 -47 0 -665 c0 -706 0 -707 -51 -904 -40 -158
-92 -303 -153 -428 l-18 -38 -114 92 c-63 51 -172 140 -244 198 -71 58 -134
109 -140 113 -10 8 -59 47 -135 108 -24 19 -64 52 -89 74 -65 54 -74 62 -186
151 -55 43 -102 82 -105 85 -3 3 -25 21 -50 40 -25 19 -47 37 -50 40 -31 33
-194 160 -206 160 -6 0 -131 -99 -219 -172 -18 -15 -218 -177 -384 -311 -35
-29 -96 -78 -135 -109 -39 -32 -75 -61 -81 -66 -21 -17 -315 -255 -402 -327
-51 -41 -94 -75 -97 -75 -6 0 -73 152 -101 230 -40 112 -62 192 -104 380 -26
114 -31 270 -30 823 l2 580 26 28 c36 39 184 121 278 153 43 15 85 31 94 36 9
5 34 12 55 16 22 3 44 9 49 13 11 6 54 16 225 49 172 33 238 42 390 53 79 5
147 13 150 15 8 9 598 -3 730 -15z m-348 -1448 c46 -38 96 -77 110 -88 14 -11
68 -55 119 -97 52 -42 139 -113 194 -158 55 -45 118 -97 140 -115 22 -19 58
-48 80 -65 22 -17 58 -46 80 -64 22 -19 58 -49 80 -68 22 -18 42 -36 43 -40 2
-5 10 -8 17 -8 8 0 20 -8 27 -18 7 -9 29 -29 48 -43 19 -15 45 -35 57 -45 12
-11 36 -30 53 -44 17 -14 41 -33 53 -44 12 -10 36 -29 54 -43 34 -26 34 -37 0
-86 -10 -15 -31 -50 -45 -77 -130 -240 -491 -609 -814 -833 -38 -26 -70 -47
-74 -47 -3 0 -20 -11 -38 -25 -18 -14 -36 -25 -40 -25 -3 0 -25 -12 -48 -26
-70 -45 -172 -94 -193 -94 -23 0 -248 111 -265 131 -3 3 -12 8 -20 12 -17 8
-53 30 -60 37 -3 3 -38 27 -79 53 -69 46 -173 127 -266 207 -51 44 -243 236
-275 275 -14 17 -46 55 -71 85 -45 53 -179 246 -179 257 0 3 -16 31 -36 64
l-37 59 36 32 c20 18 49 43 64 55 16 12 38 31 50 42 12 12 26 21 32 21 5 0 11
3 13 8 3 7 41 39 101 85 30 23 120 99 175 148 19 16 37 29 40 29 4 0 23 15 43
33 20 17 76 64 124 102 48 39 100 81 115 95 16 14 52 43 80 65 28 22 68 54 88
71 99 85 318 254 328 254 6 0 49 -30 96 -67z"/>
<path d="M1744 3581 c-23 -11 -47 -27 -53 -38 -9 -16 -10 -16 -11 -1 0 9 5 20
10 23 16 10 12 25 -6 25 -46 0 -75 -84 -50 -145 26 -62 29 -55 -87 -265 -16
-30 -31 -57 -33 -58 -1 -2 -10 10 -19 28 -26 50 -81 105 -125 125 -22 10 -40
21 -40 24 0 3 22 6 49 6 39 0 58 -6 95 -33 l46 -33 0 40 c0 32 -4 41 -17 42
-35 1 -68 10 -78 20 -7 7 11 8 55 4 61 -5 63 -4 35 9 -16 8 -43 19 -59 25 -28
11 -28 12 -10 32 13 15 26 19 46 15 24 -5 28 -2 28 18 0 15 11 32 28 45 l27
20 -37 1 c-20 0 -48 -5 -62 -11 -19 -9 -32 -9 -55 0 -25 11 -39 9 -104 -13
-42 -14 -89 -26 -107 -26 -38 0 -84 23 -104 52 -20 28 -31 16 -30 -33 1 -41
26 -79 51 -79 19 0 16 -17 -7 -40 -27 -27 -26 -43 2 -35 17 6 20 4 15 -9 -20
-48 -20 -51 -6 -38 27 25 31 10 24 -98 l-8 -109 33 -51 c36 -56 33 -68 -20
-90 -71 -30 -152 28 -166 118 -9 63 7 110 68 194 10 13 3 26 -41 77 -100 115
-207 172 -325 173 -131 1 -136 -2 -99 -68 59 -104 56 -190 -9 -246 -18 -15
-30 -29 -27 -31 2 -2 18 -13 36 -25 44 -31 67 -95 61 -169 -3 -32 -9 -66 -13
-75 -6 -14 -2 -18 17 -18 68 0 197 -78 213 -130 9 -27 24 -25 103 13 98 48
167 71 187 63 17 -6 16 -9 -7 -34 -13 -15 -50 -65 -81 -112 -90 -136 -190
-210 -283 -210 -65 0 -70 10 -43 97 13 40 19 80 16 100 -7 41 5 42 45 3 35
-36 38 -36 38 -10 0 57 -61 117 -152 151 -56 20 -128 26 -128 9 0 -5 4 -10 10
-10 20 0 33 -47 32 -117 -1 -40 1 -73 4 -73 3 0 15 11 27 24 26 29 67 44 66
24 0 -13 -18 -41 -76 -118 -29 -37 -33 -51 -33 -102 0 -63 18 -111 49 -127 76
-41 182 -52 244 -26 65 27 81 16 56 -39 -8 -18 -22 -27 -50 -31 -42 -7 -53
-25 -16 -25 37 0 65 -71 46 -114 -12 -26 -36 -36 -122 -52 -46 -8 -41 -16 11
-18 57 -3 92 -29 92 -69 0 -17 7 -52 15 -76 9 -24 13 -52 9 -63 -5 -17 -3 -18
13 -9 52 31 56 38 50 96 -4 41 -2 55 7 55 19 0 96 -86 96 -106 0 -16 2 -15 20
1 26 23 26 67 0 90 -11 10 -20 22 -20 27 0 16 44 8 67 -14 l23 -21 0 39 c0 46
-14 64 -49 64 -38 0 -114 25 -119 39 -2 6 0 17 6 24 5 7 10 29 10 50 2 48 5
52 55 84 61 37 88 64 78 77 -4 6 -11 23 -15 38 l-6 27 32 -14 c22 -9 38 -10
51 -4 32 18 35 -21 7 -116 -19 -65 -23 -105 -11 -105 6 0 11 6 11 13 0 25 67
63 157 91 84 26 91 24 95 -31 l3 -48 14 43 c16 49 84 112 161 151 24 13 57 34
73 47 16 13 35 24 43 24 8 0 14 7 14 15 0 11 -12 15 -49 15 -28 0 -53 -4 -56
-10 -7 -11 -45 -33 -45 -26 0 7 60 65 78 75 22 12 16 17 -29 24 -35 5 -38 3
-68 -43 -17 -26 -38 -50 -46 -54 -23 -9 -18 8 15 45 34 39 39 69 12 69 -30 0
-59 -41 -66 -95 -3 -27 -11 -54 -16 -59 -16 -16 -84 -36 -93 -27 -4 4 -1 38 7
75 23 96 21 120 -10 141 -23 15 -33 16 -64 6 -43 -13 -80 -14 -80 -3 0 4 25
27 56 52 93 74 168 171 179 231 5 31 3 35 -27 50 -17 8 -34 22 -36 29 -4 10 0
9 12 -3 10 -9 25 -17 35 -17 9 0 21 -4 26 -9 6 -5 23 -11 39 -13 30 -3 50 -28
23 -28 -8 0 -19 -6 -26 -13 -8 -11 5 -13 74 -9 111 6 129 0 159 -51 l26 -42 0
33 c0 18 -7 46 -15 61 -8 16 -12 31 -8 34 7 8 56 -17 72 -37 21 -25 31 -19 31
19 0 32 -3 35 -50 52 -65 23 -64 37 2 29 51 -7 51 -7 37 15 -8 12 -32 28 -53
37 -35 14 -39 14 -64 -7 -15 -12 -44 -30 -66 -40 -35 -17 -42 -18 -82 -4 -56
19 -94 63 -94 109 0 20 5 34 13 34 16 0 96 112 138 195 l34 65 55 -5 55 -6
-31 17 c-42 22 -52 50 -36 101 18 55 44 77 93 78 29 0 39 4 37 15 -5 22 -95
26 -118 5 -11 -10 -20 -13 -24 -6 -7 10 6 24 54 61 l25 19 -25 0 c-14 1 -44
-8 -66 -18z m-379 -131 c7 -11 -1 -15 -50 -24 l-30 -6 24 20 c25 22 46 26 56
10z m175 -366 c0 -8 -4 -12 -10 -9 -5 3 -10 13 -10 21 0 8 5 12 10 9 6 -3 10
-13 10 -21z"/>
<path d="M2200 3580 c48 -36 61 -51 55 -60 -4 -6 -15 -4 -28 5 -12 8 -42 15
-68 15 -39 0 -48 -4 -52 -20 -4 -17 -2 -20 14 -15 11 4 35 1 55 -5 29 -10 40
-22 56 -57 24 -55 18 -84 -24 -113 l-33 -21 55 6 55 6 37 -73 c52 -101 112
-183 132 -182 12 1 16 -7 16 -36 0 -48 -30 -86 -87 -111 -44 -19 -45 -19 -86
1 -23 11 -56 29 -73 40 -29 19 -34 19 -67 5 -38 -16 -64 -49 -48 -60 5 -3 12
-1 16 5 7 12 75 14 75 2 0 -4 -22 -15 -50 -25 -47 -17 -50 -20 -50 -53 0 -38
-2 -38 59 3 41 28 55 22 35 -15 -7 -15 -14 -43 -14 -62 l0 -35 17 33 c27 55
50 64 153 61 87 -4 90 -3 70 13 -27 22 -18 38 20 38 16 0 32 5 35 10 3 6 13
10 21 10 8 0 14 -4 14 -10 0 -5 -9 -10 -19 -10 -24 0 -21 -22 10 -89 21 -43
190 -221 211 -221 4 0 8 -5 8 -11 0 -11 -32 -9 -91 6 -18 5 -36 1 -54 -11 -25
-16 -26 -21 -21 -68 2 -28 8 -68 11 -88 11 -59 4 -69 -42 -53 -42 14 -63 44
-63 91 0 37 -34 84 -61 84 -28 0 -24 -31 11 -75 35 -44 37 -49 10 -35 -11 6
-31 31 -46 55 -25 44 -28 45 -63 39 -46 -9 -50 -13 -27 -30 40 -28 77 -66 72
-71 -2 -3 -18 4 -34 16 -36 26 -112 30 -112 6 0 -8 5 -15 11 -15 5 0 36 -17
67 -39 31 -21 71 -45 87 -54 43 -23 115 -91 115 -108 1 -8 7 -25 15 -39 14
-24 14 -24 15 23 0 57 4 58 115 22 84 -28 135 -58 135 -81 0 -8 5 -14 10 -14
14 0 13 20 -6 87 -9 32 -19 76 -22 97 -4 38 -4 39 24 33 16 -3 40 1 55 8 25
14 26 13 21 -13 -2 -15 -9 -33 -15 -40 -12 -15 -11 -16 66 -66 57 -38 62 -44
65 -81 1 -22 8 -50 14 -63 7 -14 8 -26 2 -31 -13 -11 -87 -31 -116 -31 -41 0
-66 -43 -52 -88 3 -9 10 -7 26 7 21 20 68 29 68 14 0 -5 -11 -18 -24 -31 -20
-19 -23 -28 -16 -52 16 -56 34 -66 44 -26 6 26 74 96 92 96 9 0 11 -17 7 -59
-5 -52 -3 -60 15 -70 11 -6 27 -18 36 -26 13 -14 14 -12 9 19 -3 22 1 46 11
67 9 17 16 47 16 66 0 43 47 77 97 69 60 -9 43 11 -20 24 -34 6 -70 16 -79 21
-25 13 -31 61 -14 103 12 28 21 36 40 36 40 0 31 17 -13 25 -28 4 -42 13 -50
31 -25 55 -13 63 54 39 89 -32 212 -8 265 51 27 31 30 42 30 98 0 56 -4 68
-32 105 -65 84 -78 104 -78 117 0 19 9 17 48 -6 17 -11 32 -27 32 -35 0 -9 5
-13 11 -10 7 5 8 29 4 70 -5 48 -3 69 9 94 9 17 21 31 26 31 6 0 10 5 10 10 0
16 -63 12 -126 -7 -75 -23 -154 -96 -154 -142 0 -17 2 -31 4 -31 2 0 18 14 36
30 18 17 35 28 38 25 4 -3 5 -23 4 -43 -2 -20 4 -54 12 -74 9 -21 16 -53 16
-73 l0 -35 -53 0 c-100 0 -196 73 -302 231 -38 57 -74 107 -79 111 -6 4 -4 10
6 13 22 9 73 -8 175 -56 87 -41 113 -47 113 -26 0 33 129 127 175 127 11 0 30
3 42 6 18 5 20 10 12 37 -25 89 4 203 61 235 36 21 37 25 4 46 -40 27 -64 94
-53 147 5 24 11 49 13 54 2 6 4 15 5 20 2 6 14 25 28 43 14 18 22 36 18 40 -4
4 -55 7 -113 7 -98 0 -112 -3 -167 -29 -40 -20 -85 -56 -137 -109 -43 -43 -78
-84 -78 -89 0 -6 10 -25 23 -42 27 -37 43 -72 51 -108 18 -80 -36 -174 -105
-185 -41 -6 -109 21 -109 43 0 8 14 33 30 56 33 45 37 86 21 198 -10 65 -7 74
21 59 22 -12 22 -14 1 40 -5 10 0 12 15 6 27 -8 28 6 2 30 -23 21 -26 45 -7
45 26 0 48 37 49 79 1 52 -8 61 -28 33 -20 -29 -66 -52 -104 -52 -18 0 -65 12
-106 26 -65 23 -78 25 -99 14 -14 -8 -35 -10 -52 -5 -15 3 -46 9 -68 11 l-40
5 28 -21 c17 -14 27 -31 27 -47 0 -21 4 -24 23 -19 14 3 33 -1 46 -10 21 -15
22 -17 4 -29 -10 -7 -33 -16 -50 -19 -62 -14 -49 -29 18 -21 49 5 61 4 53 -5
-12 -12 -34 -18 -71 -19 -20 -1 -23 -6 -23 -40 l0 -40 52 35 c34 23 59 33 72
30 12 -3 32 -6 46 -6 20 0 14 -6 -30 -32 -48 -29 -92 -76 -126 -133 -9 -16
-15 -9 -45 51 -18 38 -36 71 -39 74 -3 3 -20 33 -38 67 l-33 63 18 37 c32 68
11 163 -37 163 -21 0 -27 -15 -10 -25 6 -3 10 -16 9 -28 0 -22 0 -22 -9 1 -11
25 -81 62 -120 61 l-25 0 25 -19z m505 -141 c5 -5 -4 -9 -22 -9 -32 0 -48 11
-36 24 8 7 44 -2 58 -15z m-215 -344 c0 -8 -4 -15 -10 -15 -5 0 -10 7 -10 15
0 8 5 15 10 15 6 0 10 -7 10 -15z m55 -194 c-3 -6 -11 -11 -16 -11 -5 0 -4 6
3 14 14 16 24 13 13 -3z"/>
<path d="M1760 1869 c-25 -5 -54 -14 -65 -19 -11 -5 -42 -19 -70 -30 -51 -22
-111 -60 -151 -94 -13 -10 -32 -46 -44 -80 -12 -33 -25 -68 -30 -76 -4 -9 -11
-31 -14 -50 -7 -34 -18 -65 -37 -102 -5 -10 -9 -25 -9 -34 0 -9 -6 -30 -14
-47 -7 -18 -35 -99 -61 -182 -26 -82 -54 -164 -61 -182 -8 -17 -14 -44 -14
-61 l0 -29 218 -1 c321 -3 482 -12 517 -30 42 -21 102 -22 149 -2 46 19 229
30 548 31 103 0 190 4 193 9 3 4 -2 21 -10 36 -8 16 -15 34 -15 41 0 15 -28
103 -39 123 -5 9 -12 31 -16 50 -4 19 -11 41 -16 50 -4 8 -18 49 -29 90 -12
41 -25 84 -30 95 -9 22 -47 136 -74 225 -30 98 -38 110 -100 154 -113 81 -275
134 -371 124 -25 -3 -63 -17 -85 -32 -22 -14 -40 -22 -40 -16 0 33 -144 58
-230 39z m151 -19 c73 -20 70 -2 72 -444 1 -218 1 -396 -1 -396 -1 0 -21 12
-45 28 l-42 27 -226 0 c-178 0 -229 -3 -243 -14 -9 -8 -19 -11 -23 -8 -6 7 6
77 31 187 9 36 23 97 31 135 9 39 20 86 25 105 27 113 43 182 54 234 11 56 14
60 58 81 64 31 104 45 168 60 70 16 96 17 141 5z m295 -1 c68 -12 132 -34 189
-66 42 -23 57 -50 69 -128 4 -22 11 -51 15 -65 5 -14 17 -61 26 -105 10 -44
21 -89 26 -100 4 -11 11 -42 14 -70 4 -27 10 -54 15 -60 4 -5 10 -32 14 -60 3
-27 11 -63 18 -81 20 -55 10 -61 -78 -52 -44 5 -116 14 -161 20 -55 7 -93 8
-115 1 -27 -7 -4 -11 117 -17 83 -4 154 -12 160 -17 5 -5 28 -9 50 -9 30 0 47
-6 61 -22 10 -11 46 -39 79 -60 l60 -40 -150 7 c-82 3 -168 10 -190 15 -22 5
-88 10 -148 10 -87 0 -115 -4 -150 -20 -40 -19 -46 -19 -80 -5 -20 8 -37 21
-37 29 0 40 85 99 155 109 17 3 6 3 -22 2 -33 -2 -64 -11 -82 -24 -16 -12 -34
-21 -40 -21 -8 0 -11 114 -11 390 0 389 0 389 22 410 40 37 86 45 174 29z
m-675 -150 c-5 -13 -17 -60 -26 -104 -10 -44 -21 -87 -25 -96 -5 -9 -11 -42
-15 -75 -4 -32 -11 -63 -15 -69 -5 -5 -11 -32 -15 -60 -3 -27 -10 -59 -14 -70
-5 -11 -17 -56 -26 -100 -10 -44 -25 -88 -34 -98 -19 -22 -98 -77 -112 -77 -5
0 -9 -4 -9 -10 0 -5 4 -10 8 -10 10 0 125 79 133 91 16 25 454 53 482 31 7 -5
25 -12 42 -16 31 -8 85 -60 85 -83 0 -7 -17 -20 -37 -28 -36 -15 -40 -15 -76
4 -32 18 -57 21 -147 21 -59 0 -130 -4 -157 -9 -74 -14 -326 -24 -341 -13 -11
7 -3 40 36 158 27 82 60 183 73 224 12 41 26 79 31 85 4 5 8 19 8 31 0 13 4
25 9 28 5 3 12 22 16 42 3 20 10 44 15 53 5 9 17 43 27 76 11 39 28 70 47 87
33 31 52 24 37 -13z m974 16 c22 -17 35 -38 40 -62 3 -19 10 -43 15 -52 5 -9
29 -83 55 -166 26 -82 50 -157 54 -165 5 -9 12 -31 16 -50 4 -19 11 -41 15
-50 6 -12 51 -149 56 -170 0 -3 4 -13 8 -22 17 -38 -2 -37 -61 1 -70 45 -83
63 -100 141 -13 63 -37 169 -58 255 -8 33 -17 74 -20 90 -4 17 -9 37 -13 45
-3 8 -7 24 -8 35 -3 20 -12 60 -33 140 -17 66 -16 67 34 30z"/>
</g>
</svg>
