<?xml version="1.0" standalone="no"?>
<!DOCTYPE svg PUBLIC "-//W3C//DTD SVG 20010904//EN"
 "http://www.w3.org/TR/2001/REC-SVG-20010904/DTD/svg10.dtd">
<svg version="1.0" xmlns="http://www.w3.org/2000/svg"
 width="308.000000pt" height="323.000000pt" viewBox="0 0 308.000000 323.000000"
 preserveAspectRatio="xMidYMid meet">

<g transform="translate(0.000000,323.000000) scale(0.100000,-0.100000)"
fill="#000000" stroke="none">
<path d="M1415 3060 c-8 -37 -18 -38 -33 -5 -8 17 -20 25 -37 25 -25 0 -25 -1
-11 -27 8 -16 24 -41 35 -58 13 -19 21 -46 21 -72 0 -40 2 -43 26 -43 26 0 27
1 21 50 -4 32 -1 62 7 82 29 71 29 78 2 78 -19 0 -26 -6 -31 -30z"/>
<path d="M1490 2990 l0 -100 25 0 c23 0 25 4 25 40 0 22 4 40 8 40 5 0 14 -18
21 -40 10 -33 16 -40 36 -40 l25 0 -19 49 c-15 41 -16 51 -5 55 20 8 17 60 -4
79 -12 11 -36 17 -65 17 l-47 0 0 -100z m86 31 c-11 -18 -36 -13 -36 7 0 10 3
22 7 26 10 10 37 -20 29 -33z"/>
<path d="M1283 3072 c-6 -4 -13 -30 -15 -57 l-3 -50 -28 47 c-25 41 -31 46
-48 38 -15 -9 -19 -22 -19 -63 l-1 -52 -27 48 c-20 35 -32 47 -47 45 -11 -2
-19 -7 -17 -13 8 -30 99 -175 110 -175 7 0 12 15 13 38 1 20 4 50 8 66 l6 29
28 -51 c27 -49 44 -69 52 -60 9 9 17 218 9 218 -5 0 -14 -4 -21 -8z"/>
<path d="M963 2975 l-31 -13 36 -91 c26 -64 42 -91 54 -91 26 0 30 16 14 55
-19 45 -1 48 34 5 21 -25 30 -30 48 -23 23 9 23 9 -12 49 -24 28 -33 47 -30
61 3 12 1 30 -5 42 -14 25 -59 28 -108 6z m75 -42 c6 -19 -28 -29 -39 -12 -5
8 -9 18 -9 22 0 13 43 3 48 -10z"/>
<path d="M888 2939 c-13 -7 -16 -17 -11 -39 6 -33 -7 -40 -27 -15 -19 23 -36
19 -100 -25 l-59 -40 17 -28 c76 -120 94 -141 113 -131 24 12 24 14 -3 51
l-21 31 21 18 c14 11 20 23 16 33 -6 15 -8 15 -31 0 -23 -15 -27 -15 -42 0
-15 16 -14 18 5 34 12 9 23 22 25 29 7 21 86 -38 110 -82 12 -22 23 -41 25
-43 1 -2 12 1 23 8 l21 11 -25 43 c-19 32 -25 57 -25 99 0 59 -3 63 -32 46z"/>
<path d="M1695 2920 c-4 -17 -4 -34 -1 -37 3 -4 6 1 6 10 0 9 10 17 23 19 28
4 29 32 0 36 -17 3 -23 -3 -28 -28z m35 10 c0 -5 -4 -10 -10 -10 -5 0 -10 5
-10 10 0 6 5 10 10 10 6 0 10 -4 10 -10z"/>
<path d="M1765 2910 c-4 -17 -5 -34 -2 -36 3 -3 8 8 12 25 4 17 11 31 16 31
12 0 12 -13 -1 -26 -7 -7 -6 -16 4 -29 12 -17 13 -15 12 21 -1 51 -31 61 -41
14z"/>
<path d="M1843 2885 c-6 -19 -8 -35 -3 -35 8 0 23 60 17 67 -2 1 -8 -13 -14
-32z"/>
<path d="M1881 2879 c-14 -42 -14 -47 2 -24 9 11 19 15 28 11 8 -4 6 -1 -4 7
-19 16 -7 34 15 21 7 -4 8 -3 4 4 -13 22 -34 12 -45 -19z"/>
<path d="M1955 2851 c0 -30 2 -36 9 -23 5 9 18 25 30 35 19 16 19 17 1 9 -14
-8 -22 -6 -30 4 -8 12 -10 6 -10 -25z"/>
<path d="M2025 2850 c-3 -5 -1 -18 4 -28 12 -23 5 -33 -17 -25 -10 4 -13 2 -8
-5 10 -17 36 -15 43 4 3 8 1 20 -6 27 -16 16 -14 30 5 23 8 -3 12 -2 9 4 -8
13 -22 13 -30 0z"/>
<path d="M1383 2820 c-376 -53 -708 -284 -877 -610 -144 -278 -171 -598 -76
-891 110 -336 360 -597 698 -729 40 -16 40 -29 2 -129 -34 -88 -86 -173 -167
-273 l-54 -68 39 0 c60 0 140 28 225 78 87 52 250 194 312 271 37 46 43 50 85
51 76 0 230 29 322 60 471 158 789 597 788 1089 0 130 -11 209 -45 326 -119
412 -456 722 -879 810 -93 19 -289 27 -373 15z m412 -373 c138 -45 219 -116
270 -235 18 -44 20 -77 25 -500 5 -424 6 -455 23 -467 21 -15 50 -9 114 24 23
11 45 21 48 21 3 0 5 -63 5 -139 l0 -139 -76 -42 c-120 -66 -198 -92 -294 -97
-115 -7 -164 7 -217 63 -25 25 -47 61 -54 86 -7 24 -14 45 -15 47 -2 2 -37
-24 -80 -58 -156 -126 -299 -169 -450 -138 -93 20 -145 47 -206 108 -88 88
-128 212 -108 335 33 203 197 341 572 483 84 31 174 63 201 70 l47 14 0 66 c0
82 -29 146 -78 174 -116 67 -363 2 -560 -148 -40 -30 -75 -55 -78 -55 -2 0 -4
80 -4 178 l0 177 58 37 c74 47 183 101 248 122 120 39 175 46 354 42 156 -3
184 -6 255 -29z"/>
<path d="M1476 1614 c-119 -53 -203 -109 -234 -155 -20 -29 -23 -44 -20 -104
5 -111 55 -157 168 -157 61 0 95 13 168 65 l42 30 0 184 c0 140 -3 183 -12
182 -7 0 -57 -20 -112 -45z"/>
<path d="M2077 2814 c-15 -15 -6 -54 14 -65 27 -14 50 4 30 24 -10 10 -11 8
-5 -7 6 -16 4 -18 -10 -13 -10 4 -20 7 -22 7 -2 0 -4 9 -4 20 0 26 27 37 52
21 16 -10 19 -10 16 1 -5 14 -59 23 -71 12z"/>
<path d="M657 2792 c-13 -14 -16 -28 -11 -47 7 -30 8 -29 -41 -9 -6 3 -19 -2
-30 -10 -19 -14 -17 -16 38 -40 32 -14 72 -42 89 -61 24 -28 33 -33 44 -24 19
16 18 23 -12 58 -14 17 -33 58 -43 91 -16 60 -17 61 -34 42z"/>
<path d="M2166 2764 c-22 -21 -20 -40 6 -58 41 -29 83 19 48 54 -24 24 -34 25
-54 4z m48 -10 c20 -19 20 -19 0 -38 -12 -12 -20 -13 -35 -6 -22 12 -25 30 -7
48 16 16 23 15 42 -4z"/>
<path d="M2250 2700 c-18 -25 -19 -34 -10 -45 7 -8 18 -15 24 -15 6 0 3 7 -7
14 -16 13 -16 15 4 40 12 15 19 29 16 32 -3 3 -15 -9 -27 -26z"/>
<path d="M521 2676 c-8 -10 -7 -24 4 -55 l14 -42 -47 7 c-35 4 -51 2 -59 -8
-9 -10 4 -27 63 -82 63 -57 77 -66 90 -55 13 11 9 18 -28 56 l-43 45 38 -7
c40 -8 43 -3 27 39 -13 34 -8 33 40 -11 37 -32 43 -35 56 -21 14 14 8 22 -57
82 -40 36 -76 66 -80 66 -4 0 -12 -6 -18 -14z"/>
<path d="M2338 2624 c-16 -8 -28 -17 -28 -20 0 -3 5 -2 10 1 16 10 42 -16 35
-34 -4 -11 -3 -13 4 -6 14 14 26 75 15 75 -5 -1 -21 -8 -36 -16z m32 -10 c0
-8 -5 -12 -10 -9 -6 4 -8 11 -5 16 9 14 15 11 15 -7z"/>
<path d="M2401 2576 c-26 -28 -27 -42 -1 -56 16 -9 22 -7 27 7 4 10 12 21 19
26 15 9 9 33 -11 41 -7 2 -22 -6 -34 -18z m39 -6 c0 -5 -4 -10 -10 -10 -5 0
-10 5 -10 10 0 6 5 10 10 10 6 0 10 -4 10 -10z m-23 -36 c-9 -9 -28 6 -21 18
4 6 10 6 17 -1 6 -6 8 -13 4 -17z"/>
<path d="M2450 2515 c-22 -24 -23 -26 -7 -40 9 -8 12 -10 7 -3 -16 19 -12 31
10 25 11 -3 18 -1 14 4 -11 18 7 30 24 17 15 -12 16 -11 3 5 -18 22 -23 22
-51 -8z"/>
<path d="M2495 2463 c-27 -23 -27 -25 -6 -18 22 7 23 5 17 -21 -6 -26 -5 -27
6 -9 6 11 19 25 27 32 14 10 14 13 1 27 -13 13 -18 12 -45 -11z m45 -3 c0 -5
-7 -10 -15 -10 -8 0 -15 5 -15 10 0 6 7 10 15 10 8 0 15 -4 15 -10z"/>
<path d="M317 2408 c-13 -18 -27 -38 -31 -45 -4 -7 22 -28 67 -54 l73 -43 -18
-38 c-16 -34 -21 -37 -39 -28 -19 11 -20 19 -2 66 2 6 -3 14 -11 17 -11 4 -21
-3 -31 -24 -13 -25 -19 -28 -35 -19 -19 10 -19 13 -5 40 18 36 18 37 0 44 -11
4 -22 -9 -40 -44 -14 -27 -25 -52 -25 -55 0 -6 167 -85 179 -85 4 0 18 24 32
53 13 28 34 69 46 89 40 65 25 118 -31 118 -25 0 -35 5 -39 20 -9 34 -61 27
-90 -12z m61 -21 c18 -21 0 -40 -23 -24 -10 8 -15 19 -11 25 9 16 21 15 34 -1z
m80 -55 c2 -14 -2 -22 -11 -22 -19 0 -40 26 -32 40 11 18 40 6 43 -18z"/>
<path d="M2553 2394 c-13 -19 -18 -32 -11 -28 6 4 25 11 42 15 25 6 26 7 8 8
-19 1 -22 5 -17 21 9 28 3 24 -22 -16z"/>
<path d="M2598 2330 c-10 -31 -12 -32 -25 -14 -14 19 -15 19 -11 -1 2 -11 11
-21 21 -23 13 -3 19 5 24 29 6 30 7 31 20 14 7 -11 13 -14 13 -8 0 6 -7 16
-15 23 -13 11 -17 7 -27 -20z"/>
<path d="M2654 2298 c4 -13 -4 -23 -25 -34 -17 -8 -28 -18 -25 -21 3 -3 17 2
32 12 22 14 28 15 35 4 5 -8 9 -9 8 -4 0 6 -7 21 -15 35 -8 14 -13 17 -10 8z"/>
<path d="M2662 2207 c-22 -24 -28 -38 -14 -36 4 1 18 1 31 0 l24 -1 -21 -23
-22 -23 43 -1 c35 0 36 0 8 4 l-33 4 23 25 22 24 -33 0 -33 0 23 25 c13 14 19
25 13 25 -5 0 -19 -10 -31 -23z"/>
<path d="M203 2148 c-18 -20 -47 -88 -41 -93 2 -1 45 -16 96 -33 l93 -31 9 25
c28 73 21 101 -33 134 -44 27 -98 26 -124 -2z m115 -44 c27 -18 31 -59 5 -51
-10 3 -39 11 -65 18 -50 14 -61 31 -30 48 20 11 57 5 90 -15z"/>
<path d="M2713 2075 l-32 -22 39 1 c27 0 35 3 24 9 -12 7 -13 12 -3 23 15 19
10 17 -28 -11z"/>
<path d="M146 2004 c-9 -24 0 -31 50 -39 54 -8 52 -12 -12 -29 -32 -8 -49 -18
-55 -33 -7 -20 -3 -23 59 -36 134 -30 132 -30 138 -12 9 22 -7 31 -65 41 l-46
7 63 19 c55 17 84 39 70 53 -2 3 -38 11 -79 20 -41 8 -84 17 -95 20 -14 3 -24
-1 -28 -11z"/>
<path d="M2743 1997 c-18 -6 -33 -15 -33 -19 0 -4 12 -3 26 2 18 7 31 7 39 0
11 -9 12 -7 8 9 -3 12 -6 20 -7 20 0 -1 -16 -7 -33 -12z"/>
<path d="M2740 1930 c-15 -5 -18 -8 -9 -9 25 -2 33 -33 12 -48 -15 -12 -13
-12 17 -7 39 8 52 14 28 14 -24 0 -32 32 -12 47 21 15 5 16 -36 3z"/>
<path d="M118 1822 c-6 -23 22 -32 96 -32 50 0 71 -12 62 -35 -6 -16 -17 -17
-86 -12 -79 5 -80 5 -80 -19 0 -19 5 -24 28 -24 15 0 50 -3 79 -6 46 -6 54 -4
77 19 32 32 34 77 6 102 -15 13 -42 20 -99 23 -72 4 -78 3 -83 -16z"/>
<path d="M2752 1667 c3 -19 10 -22 53 -25 l50 -4 -55 -23 c-36 -15 -56 -30
-58 -43 -3 -17 5 -20 59 -26 112 -11 139 -9 139 14 0 16 -7 20 -34 20 -67 0
-70 11 -12 38 53 23 71 48 44 56 -7 3 -53 7 -101 10 -87 5 -88 5 -85 -17z"/>
<path d="M268 1613 c6 -2 12 -12 12 -22 0 -9 -6 -23 -12 -30 -7 -8 7 -3 30 10
l44 24 -29 12 c-15 7 -35 12 -43 12 -10 0 -11 -2 -2 -6z m42 -23 c0 -5 -4 -10
-10 -10 -5 0 -10 5 -10 10 0 6 5 10 10 10 6 0 10 -4 10 -10z"/>
<path d="M288 1543 c-16 -2 -28 -8 -28 -13 0 -4 9 -6 20 -3 14 4 20 0 20 -12
0 -11 -5 -15 -15 -11 -8 3 -15 0 -15 -5 0 -7 9 -9 23 -5 12 3 28 6 35 6 6 0
12 11 12 25 0 14 -5 24 -12 24 -7 -1 -25 -4 -40 -6z m42 -18 c0 -8 -4 -15 -10
-15 -5 0 -10 7 -10 15 0 8 5 15 10 15 6 0 10 -7 10 -15z"/>
<path d="M2762 1505 c-32 -23 -44 -59 -30 -90 20 -45 111 -70 159 -44 45 24
44 98 -2 127 -34 22 -101 25 -127 7z m119 -56 c13 -20 11 -27 -9 -38 -22 -12
-91 2 -103 20 -4 7 -5 19 -2 27 8 18 101 11 114 -9z"/>
<path d="M312 1479 c-42 -9 -46 -13 -33 -36 11 -17 11 -17 9 1 -4 25 19 33 25
9 4 -17 5 -17 6 0 0 9 5 17 11 17 5 0 14 -8 19 -17 12 -20 13 -7 3 18 -5 11
-15 13 -40 8z"/>
<path d="M310 1420 c-17 -5 -19 -8 -7 -9 21 -1 22 -9 0 -33 -10 -11 -12 -18
-4 -18 6 0 14 6 17 14 3 8 13 12 25 9 15 -4 19 0 19 21 0 27 -8 30 -50 16z
m36 -27 c-10 -10 -19 5 -10 18 6 11 8 11 12 0 2 -7 1 -15 -2 -18z"/>
<path d="M360 1360 c0 -5 -12 -17 -27 -25 -26 -15 -27 -16 -4 -11 13 3 34 0
45 -5 19 -9 20 -9 3 4 -10 9 -15 21 -11 31 3 9 3 16 0 16 -3 0 -6 -4 -6 -10z"/>
<path d="M2703 1345 c-3 -9 -3 -18 0 -21 7 -8 178 -56 182 -52 2 2 5 11 7 22
2 15 -10 22 -77 42 -95 28 -104 29 -112 9z"/>
<path d="M357 1278 c-14 -20 -18 -21 -26 -8 -6 8 -11 10 -11 4 0 -6 6 -16 13
-23 15 -12 37 3 37 26 0 23 15 14 26 -16 11 -27 9 -30 -20 -45 -17 -9 -22 -14
-11 -10 52 17 55 16 55 -3 0 -11 -9 -28 -20 -38 -28 -25 -25 -32 11 -27 l31 5
-17 -27 -17 -26 36 0 c43 0 45 -12 9 -47 -22 -20 -23 -24 -8 -18 45 17 63 17
74 -2 8 -16 5 -22 -20 -37 -17 -10 -28 -20 -26 -23 3 -2 17 3 31 12 14 9 30
14 36 10 16 -10 12 4 -11 36 -11 16 -27 29 -35 29 -8 0 -13 9 -11 23 2 17 -4
23 -26 25 -28 3 -28 4 -12 28 15 24 15 24 -17 24 l-32 0 21 21 21 21 -24 52
c-13 28 -27 52 -32 54 -5 1 -16 -8 -25 -20z"/>
<path d="M2686 1283 c-10 -25 -7 -29 34 -43 22 -7 40 -16 40 -20 0 -4 -21 -8
-47 -8 -32 -2 -52 -8 -61 -19 -16 -22 -13 -24 86 -63 69 -27 85 -31 93 -19 14
23 12 25 -43 46 l-52 20 62 7 c42 5 65 12 69 22 7 20 8 19 -90 58 -71 28 -87
31 -91 19z"/>
<path d="M2621 1131 c-10 -17 -3 -24 54 -57 42 -25 65 -45 65 -56 0 -26 -25
-22 -87 13 -53 30 -83 33 -83 6 0 -7 33 -30 74 -51 61 -32 77 -36 95 -27 42
23 55 86 24 113 -10 8 -44 29 -75 47 -55 31 -57 31 -67 12z"/>
<path d="M525 944 c-24 -21 -26 -24 -9 -20 27 8 55 -21 34 -34 -8 -5 -12 -11
-10 -14 3 -2 19 7 35 21 26 21 27 24 7 18 -27 -8 -41 17 -22 40 20 24 -2 17
-35 -11z"/>
<path d="M2493 929 c-16 -16 -5 -39 18 -39 10 0 23 -8 28 -17 9 -15 10 -13 11
14 0 22 -6 36 -19 43 -24 12 -25 12 -38 -1z"/>
<path d="M607 862 c-21 -23 -22 -46 -3 -61 16 -14 43 -4 66 23 19 23 0 19 -26
-5 -12 -12 -27 -18 -33 -14 -18 11 -12 42 12 58 12 9 17 16 11 16 -6 1 -18 -7
-27 -17z"/>
<path d="M2437 862 c-41 -45 -8 -89 68 -94 52 -3 62 -16 27 -34 -16 -8 -19
-13 -10 -22 18 -18 35 -14 57 14 26 33 26 49 1 74 -15 15 -33 20 -70 20 -51 0
-61 8 -35 30 8 7 15 16 15 21 0 16 -36 9 -53 -9z"/>
<path d="M663 798 c-13 -13 -23 -28 -23 -32 0 -5 9 2 20 15 l19 24 1 -42 c0
-24 3 -43 8 -42 4 0 18 14 31 32 l25 32 -26 -24 -27 -23 -3 42 -3 42 -22 -24z"/>
<path d="M2322 750 l-64 -59 26 -34 c14 -19 26 -36 26 -39 0 -3 -22 6 -50 21
-44 23 -51 24 -64 11 -13 -13 -8 -24 41 -92 35 -49 60 -75 69 -71 20 8 17 25
-11 63 -14 18 -23 35 -21 38 3 2 24 -8 49 -22 86 -51 97 -23 28 72 -47 65 -67
102 -39 74 9 -9 16 -8 29 4 15 14 21 10 70 -45 50 -57 54 -60 71 -44 17 15 15
19 -38 75 -53 55 -55 60 -40 77 16 18 12 31 -8 31 -6 -1 -40 -27 -74 -60z"/>
<path d="M728 735 c-26 -35 -22 -43 4 -9 l22 28 8 -25 7 -24 -2 24 c-3 33 -18
35 -39 6z"/>
<path d="M790 706 c-14 -8 -28 -12 -32 -10 -5 3 -8 -2 -8 -10 0 -13 6 -12 35
5 19 12 35 23 35 25 0 6 -2 5 -30 -10z"/>
<path d="M805 674 c-15 -24 -16 -28 -1 -40 9 -8 11 -9 6 -2 -16 20 -11 31 11
25 15 -4 18 -2 10 7 -14 16 -4 26 17 19 15 -4 15 -3 2 6 -22 15 -26 14 -45
-15z"/>
<path d="M855 644 c-9 -14 -14 -28 -11 -32 3 -3 6 0 6 6 0 25 20 10 21 -15 1
-21 2 -23 6 -8 3 11 11 27 19 36 11 12 11 18 2 27 -17 17 -24 15 -43 -14z m35
1 c0 -8 -4 -15 -10 -15 -5 0 -10 7 -10 15 0 8 5 15 10 15 6 0 10 -7 10 -15z"/>
<path d="M925 630 c-3 -5 -3 -21 1 -36 6 -23 4 -26 -10 -21 -9 4 -16 2 -16 -4
0 -6 8 -9 18 -7 13 3 16 12 14 37 -2 29 0 32 13 21 8 -7 15 -8 15 -2 0 14 -28
23 -35 12z"/>
<path d="M2109 602 l-47 -27 44 -80 c24 -44 48 -81 53 -83 11 -4 87 33 95 46
2 4 1 14 -4 21 -6 11 -12 11 -31 -3 -30 -21 -45 -20 -53 1 -7 16 10 37 36 45
5 2 6 11 3 20 -6 16 -10 16 -36 3 -26 -14 -29 -14 -39 5 -9 16 -6 22 19 35 20
10 28 20 25 30 -8 20 -11 19 -65 -13z"/>
<path d="M958 579 c-9 -16 -14 -29 -9 -29 8 0 34 50 29 56 -2 1 -11 -11 -20
-27z"/>
<path d="M1004 578 c0 -13 -4 -32 -8 -43 -4 -11 1 -5 10 13 10 17 20 32 23 32
21 -1 34 -23 33 -57 0 -32 1 -35 9 -15 4 12 15 25 24 28 8 4 15 11 15 16 0 6
-6 5 -15 -2 -12 -10 -16 -9 -21 4 -5 13 -52 46 -66 46 -2 0 -3 -10 -4 -22z"/>
<path d="M1966 535 c-21 -7 -40 -16 -43 -19 -6 -5 12 -58 48 -143 18 -42 18
-42 49 -29 55 23 70 42 70 90 0 33 -7 52 -25 74 -31 37 -52 43 -99 27z m64
-57 c24 -39 26 -71 5 -88 -12 -10 -18 -3 -40 45 -13 31 -22 61 -19 66 11 18
35 8 54 -23z"/>
<path d="M1868 503 c-10 -3 -18 -5 -18 -6 0 -1 9 -34 19 -74 16 -60 17 -74 5
-84 -21 -17 -31 -3 -51 72 l-18 71 -35 -6 c-19 -3 -61 -8 -93 -12 -46 -5 -57
-10 -55 -23 2 -10 12 -15 25 -14 18 2 22 -4 27 -37 3 -22 9 -58 12 -80 4 -31
10 -40 26 -40 19 0 19 4 13 85 -7 83 -7 85 14 85 12 0 19 5 16 10 -3 6 -2 10
3 10 5 0 15 -28 22 -62 17 -76 44 -108 86 -101 37 7 64 30 64 56 0 25 -30 140
-38 148 -4 3 -15 4 -24 2z"/>
<path d="M1530 440 c-28 -28 -25 -44 17 -90 28 -32 33 -44 24 -53 -9 -9 -16
-9 -32 1 -19 12 -20 11 -17 -10 2 -18 10 -24 36 -26 67 -7 85 52 32 103 -38
36 -40 59 -5 53 19 -4 25 -1 25 12 0 34 -50 40 -80 10z"/>
</g>
</svg>
