<?xml version="1.0" standalone="no"?>
<!DOCTYPE svg PUBLIC "-//W3C//DTD SVG 20010904//EN"
 "http://www.w3.org/TR/2001/REC-SVG-20010904/DTD/svg10.dtd">
<svg version="1.0" xmlns="http://www.w3.org/2000/svg"
 width="700.000000pt" height="500.000000pt" viewBox="0 0 700.000000 500.000000"
 preserveAspectRatio="xMidYMid meet">

<g transform="translate(0.000000,500.000000) scale(0.100000,-0.100000)"
fill="#000000" stroke="none">
<path d="M3857 4965 c-49 -8 -122 -24 -162 -35 -70 -20 -76 -20 -171 -4 -191
31 -398 9 -550 -60 l-62 -28 -76 22 c-231 64 -524 88 -685 56 -392 -80 -581
-344 -581 -810 0 -158 27 -323 101 -619 138 -549 316 -958 478 -1098 47 -40
133 -79 176 -79 40 0 118 31 158 62 l37 30 30 -25 c38 -32 129 -62 254 -83
120 -20 224 -15 292 15 26 12 48 20 50 18 2 -1 8 -97 14 -212 11 -226 14 -248
37 -370 44 -233 212 -357 463 -342 187 11 351 77 447 180 99 106 126 202 173
607 12 102 23 194 25 206 4 19 11 20 127 21 288 1 471 91 563 276 40 81 45
135 15 184 -30 49 -75 59 -190 39 -80 -14 -270 -23 -270 -13 0 2 20 39 45 83
325 568 501 1300 375 1559 -51 104 -223 254 -382 330 -151 73 -260 96 -468
101 -121 2 -202 -1 -263 -11z m438 -110 c50 -8 117 -23 149 -35 173 -59 368
-208 428 -325 41 -80 54 -284 29 -450 -52 -336 -212 -758 -415 -1095 -51 -84
-55 -96 -41 -106 39 -29 143 -29 318 1 120 20 167 0 167 -72 0 -38 -36 -86
-102 -135 -128 -96 -247 -131 -450 -132 l-137 0 -5 -26 c-3 -14 -8 -52 -11
-85 -14 -140 -66 -495 -80 -550 -48 -187 -154 -284 -366 -335 -46 -11 -104
-20 -129 -20 -114 0 -249 66 -300 147 -72 113 -98 273 -102 636 -2 108 -4 197
-6 197 -2 0 -24 -14 -49 -31 -78 -54 -145 -72 -263 -73 -128 0 -211 21 -268
70 -48 40 -58 73 -37 114 20 38 53 55 171 86 119 31 143 43 187 96 l36 43 -57
11 c-32 7 -75 19 -96 28 -30 12 -42 13 -53 4 -8 -6 -69 -75 -136 -152 -155
-179 -198 -221 -253 -242 -178 -68 -344 110 -508 542 -119 317 -233 806 -243
1049 -21 492 165 756 567 806 173 21 433 -10 633 -76 l77 -26 68 40 c92 54
192 75 352 75 69 0 157 -6 196 -13 63 -11 78 -10 147 8 70 18 172 35 272 45
61 6 210 -3 310 -19z"/>
<path d="M3925 4766 c-5 -3 -32 -7 -59 -11 l-48 -7 79 -47 c198 -117 355 -287
460 -495 79 -156 87 -221 56 -454 -15 -119 -15 -138 2 -312 22 -238 15 -293
-62 -467 -3 -7 0 -13 5 -13 28 0 234 412 305 610 100 277 140 462 141 655 1
172 -7 199 -88 284 -170 177 -345 249 -626 256 -85 3 -159 3 -165 1z"/>
<path d="M2264 4720 c-148 -21 -236 -61 -325 -150 -73 -73 -109 -139 -139
-257 -27 -103 -35 -266 -21 -378 38 -280 154 -731 252 -977 119 -298 221 -438
322 -438 36 0 46 6 101 63 34 34 109 117 169 185 l107 122 -47 58 c-97 119
-130 232 -117 401 5 64 9 233 9 376 1 270 7 330 50 491 38 146 136 337 204
398 11 11 21 22 21 26 0 9 -182 54 -275 69 -92 15 -243 21 -311 11z"/>
<path d="M3190 4714 c-103 -27 -180 -72 -261 -153 -130 -131 -205 -312 -243
-583 l-5 -38 32 16 c61 32 173 65 242 71 132 11 243 -45 287 -143 43 -97 73
-361 57 -501 -12 -104 -30 -170 -76 -278 -35 -81 -83 -211 -83 -227 0 -4 9 -8
20 -8 32 0 92 -28 124 -58 62 -59 66 -78 66 -392 1 -512 20 -641 112 -745 72
-83 188 -101 338 -53 134 43 203 105 236 212 26 87 81 497 117 869 6 61 46
122 95 145 20 9 38 17 40 18 2 1 -17 30 -42 64 -60 81 -254 459 -299 580 -44
121 -61 215 -53 288 19 162 131 246 328 247 101 0 99 -7 41 109 -148 299 -406
504 -704 561 -102 19 -295 19 -369 -1z"/>
<path d="M4111 3925 c-87 -27 -117 -83 -108 -200 4 -40 20 -112 38 -161 29
-84 227 -484 240 -484 11 0 30 76 36 148 3 40 0 120 -7 180 -17 137 -16 280 4
411 8 58 13 108 10 113 -8 13 -165 8 -213 -7z m110 -35 c27 -15 24 -37 -10
-71 -19 -19 -40 -29 -59 -29 -36 0 -82 34 -82 61 0 37 104 64 151 39z"/>
<path d="M2875 3905 c-27 -8 -81 -30 -121 -50 l-72 -35 -3 -208 c-7 -447 -8
-429 28 -504 55 -116 167 -203 278 -216 l43 -4 22 68 c13 38 40 109 62 158 69
157 83 222 82 381 -1 155 -29 319 -62 365 -42 58 -144 76 -257 45z m219 -56
c14 -11 26 -29 26 -39 0 -26 -47 -60 -84 -60 -70 0 -136 82 -88 109 31 19 117
13 146 -10z"/>
<path d="M4298 2755 c-26 -14 -48 -64 -48 -107 0 -27 71 -41 175 -34 140 9
262 48 335 107 l25 21 -30 -6 c-16 -3 -82 -9 -145 -12 -103 -6 -121 -4 -175
16 -83 30 -106 32 -137 15z"/>
<path d="M3076 2682 c-73 -89 -121 -116 -258 -148 -43 -10 -78 -21 -78 -25 0
-17 90 -33 185 -34 94 0 105 2 167 33 85 42 148 109 148 159 0 40 -45 93 -78
93 -13 0 -44 -29 -86 -78z"/>
<path d="M4927 928 c-124 -12 -228 -82 -282 -188 -55 -108 -57 -283 -4 -395
34 -73 112 -147 184 -175 80 -31 227 -38 305 -15 30 9 64 18 75 21 14 3 38
-10 75 -40 l54 -45 24 22 23 22 -23 20 c-13 11 -39 32 -57 48 l-33 27 36 42
c94 110 113 327 40 471 -71 140 -218 205 -417 185z m180 -63 c59 -18 133 -78
167 -138 49 -85 58 -231 21 -339 -79 -227 -429 -265 -564 -61 -43 64 -55 113
-55 218 1 122 26 187 98 253 32 29 73 55 102 65 62 20 166 21 231 2z"/>
<path d="M4126 919 c-96 -24 -145 -87 -146 -187 0 -118 42 -159 202 -196 62
-15 145 -34 183 -43 81 -19 134 -61 136 -109 5 -125 -41 -174 -176 -188 -160
-17 -277 49 -292 163 -5 40 -7 41 -43 41 l-37 0 9 -57 c10 -68 43 -122 91
-152 129 -80 404 -62 482 31 47 56 58 153 26 225 -31 66 -71 85 -287 133 -73
15 -146 36 -163 44 -86 45 -79 185 11 232 43 22 162 30 227 14 69 -16 118 -62
127 -118 6 -41 7 -42 46 -42 l39 0 -7 38 c-12 68 -45 115 -104 147 -51 27 -64
29 -170 32 -63 1 -133 -2 -154 -8z"/>
<path d="M5483 912 l-33 -3 0 -375 0 -374 270 0 270 0 0 31 0 32 -232 -4 -233
-4 -5 350 -5 350 -32 -3z"/>
<path d="M1113 823 l-103 -4 0 -314 0 -315 30 0 30 0 0 135 0 135 133 0 c154
0 199 10 243 54 56 56 64 181 17 245 -47 62 -110 73 -350 64z m260 -63 c16 -8
35 -26 43 -41 19 -37 18 -112 -2 -150 -24 -48 -65 -59 -214 -59 l-130 0 0 136
0 136 138 -4 c87 -3 147 -10 165 -18z"/>
<path d="M2520 675 l0 -65 -35 0 c-31 0 -35 -3 -35 -25 0 -22 4 -25 35 -25
l35 0 0 -163 c0 -184 3 -195 66 -206 52 -9 74 -3 74 20 0 15 -7 19 -35 19 -51
0 -56 18 -53 187 l3 148 43 -3 c39 -2 42 -1 42 23 0 23 -4 25 -45 25 l-45 0 0
65 c0 63 -1 65 -25 65 -24 0 -25 -2 -25 -65z"/>
<path d="M1646 606 c-84 -32 -127 -101 -128 -207 -1 -134 66 -210 191 -217 37
-2 87 1 111 8 162 44 190 311 42 397 -54 32 -157 41 -216 19z m188 -54 c44
-26 66 -76 66 -152 0 -113 -44 -167 -142 -177 -114 -12 -188 58 -188 175 0 29
6 68 14 86 16 37 68 82 106 89 39 8 112 -3 144 -21z"/>
<path d="M2115 611 c-65 -16 -95 -52 -95 -115 0 -18 9 -45 21 -59 22 -30 55
-40 179 -58 93 -14 130 -38 130 -82 0 -56 -61 -83 -172 -75 -53 4 -65 9 -89
36 -16 18 -29 39 -29 47 0 9 -10 15 -25 15 -19 0 -25 -5 -25 -20 0 -35 29 -79
63 -97 40 -21 177 -29 233 -14 77 21 113 82 90 152 -16 47 -57 66 -179 85
-144 23 -179 56 -123 121 23 26 29 28 104 28 71 0 83 -3 106 -24 14 -13 26
-33 28 -45 2 -15 11 -22 32 -24 28 -3 29 -2 22 29 -8 43 -50 87 -95 99 -41 11
-131 12 -176 1z"/>
<path d="M2795 605 c-111 -39 -158 -191 -96 -313 30 -58 78 -84 166 -90 62 -4
81 -1 120 18 26 12 49 29 52 36 3 8 10 14 15 14 15 0 2 -113 -17 -150 -22 -43
-68 -63 -147 -63 -77 0 -114 18 -131 64 -9 22 -18 29 -39 29 -33 0 -34 -8 -9
-59 28 -54 77 -73 184 -73 101 0 158 24 191 82 19 32 21 54 24 273 l3 237 -25
0 c-23 0 -26 -4 -26 -37 l0 -37 -27 27 c-58 55 -154 72 -238 42z m190 -53 c45
-27 68 -75 68 -142 0 -102 -53 -161 -150 -167 -70 -5 -117 16 -150 66 -47 70
-24 208 40 243 58 31 138 31 192 0z"/>
<path d="M3313 606 c-18 -8 -38 -24 -45 -35 -18 -29 -27 -26 -25 7 2 23 -2 27
-23 27 l-25 0 -3 -208 -2 -208 27 3 28 3 5 147 c4 129 8 150 26 175 28 37 60
53 110 53 36 0 40 3 39 23 -1 18 -8 22 -41 24 -21 2 -53 -4 -71 -11z"/>
<path d="M3578 611 c-59 -19 -97 -52 -124 -107 -23 -47 -26 -63 -22 -119 11
-126 77 -194 198 -203 105 -7 177 26 216 100 20 38 18 48 -11 48 -19 0 -29 -9
-44 -39 -27 -53 -76 -75 -152 -69 -86 6 -142 56 -151 133 l-3 30 193 3 192 2
0 29 c0 70 -42 142 -103 173 -46 23 -145 33 -189 19z m151 -51 c41 -21 77 -68
83 -110 l3 -25 -162 -3 c-159 -2 -163 -2 -163 18 0 12 9 39 21 61 36 72 139
100 218 59z"/>
</g>
</svg>
