<?xml version="1.0" standalone="no"?>
<!DOCTYPE svg PUBLIC "-//W3C//DTD SVG 20010904//EN"
 "http://www.w3.org/TR/2001/REC-SVG-20010904/DTD/svg10.dtd">
<svg version="1.0" xmlns="http://www.w3.org/2000/svg"
 width="800.000000pt" height="800.000000pt" viewBox="0 0 800.000000 800.000000"
 preserveAspectRatio="xMidYMid meet">

<g transform="translate(0.000000,800.000000) scale(0.100000,-0.100000)"
fill="#000000" stroke="none">
<path d="M2350 6165 c-120 -34 -221 -119 -278 -234 l-37 -75 -3 -813 -2 -812
29 -33 c25 -28 36 -33 76 -33 40 0 51 5 76 33 l29 32 0 763 c0 842 -1 832 62
896 46 47 104 74 163 74 38 0 440 -117 1654 -482 883 -265 1617 -489 1631
-496 40 -20 88 -79 100 -122 8 -27 10 -372 8 -1165 l-3 -1126 -30 -44 c-38
-54 -119 -98 -184 -98 -27 0 -117 23 -232 60 -103 33 -201 60 -219 60 -23 0
-41 -9 -66 -34 -43 -43 -46 -90 -8 -135 22 -26 54 -40 212 -91 103 -33 215
-65 250 -71 179 -32 372 73 459 249 l38 76 3 1145 c2 759 -1 1162 -8 1194 -25
116 -112 233 -216 289 -28 15 -736 233 -1669 514 -1774 534 -1704 515 -1835
479z"/>
<path d="M4450 4687 c-90 -25 -158 -86 -186 -166 -10 -29 -13 -290 -13 -1261
-1 -1211 0 -1226 20 -1270 25 -55 71 -105 124 -133 57 -31 183 -31 240 0 54
28 119 100 136 149 12 32 14 247 14 1264 l0 1225 -27 51 c-59 113 -192 173
-308 141z"/>
<path d="M3625 4377 c-62 -30 -111 -78 -139 -137 -21 -45 -21 -47 -21 -985 l0
-940 28 -57 c84 -172 315 -201 443 -55 22 25 46 63 52 85 9 29 12 286 12 973
0 918 -1 935 -21 979 -44 98 -123 151 -234 157 -59 3 -78 0 -120 -20z"/>
<path d="M2857 4085 c-58 -22 -110 -68 -143 -127 l-29 -53 0 -645 0 -645 30
-54 c56 -101 145 -148 262 -138 105 8 206 88 233 185 6 24 10 259 10 653 0
701 2 678 -80 759 -73 74 -187 100 -283 65z"/>
<path d="M2072 3817 c-44 -14 -118 -80 -145 -131 -21 -40 -22 -51 -25 -410 -3
-426 -2 -437 77 -516 145 -145 396 -79 451 118 6 22 10 177 10 378 0 383 -4
410 -67 483 -51 61 -120 91 -203 90 -36 -1 -80 -6 -98 -12z"/>
</g>
</svg>
